G75*
%MOIN*%
%OFA0B0*%
%FSLAX25Y25*%
%IPPOS*%
%LPD*%
%AMOC8*
5,1,8,0,0,1.08239X$1,22.5*
%
%ADD10C,0.00000*%
%ADD11OC8,0.05200*%
%ADD12C,0.05200*%
%ADD13C,0.05200*%
%ADD14C,0.07400*%
%ADD15R,0.07400X0.07400*%
%ADD16C,0.05150*%
%ADD17C,0.11220*%
%ADD18C,0.03169*%
%ADD19C,0.01600*%
D10*
X0010043Y0001800D02*
X0010043Y0198650D01*
X0206893Y0198650D01*
X0206893Y0001800D01*
X0010043Y0001800D01*
X0011244Y0009300D02*
X0011246Y0009458D01*
X0011252Y0009616D01*
X0011262Y0009774D01*
X0011276Y0009932D01*
X0011294Y0010089D01*
X0011315Y0010246D01*
X0011341Y0010402D01*
X0011371Y0010558D01*
X0011404Y0010713D01*
X0011442Y0010866D01*
X0011483Y0011019D01*
X0011528Y0011171D01*
X0011577Y0011322D01*
X0011630Y0011471D01*
X0011686Y0011619D01*
X0011746Y0011765D01*
X0011810Y0011910D01*
X0011878Y0012053D01*
X0011949Y0012195D01*
X0012023Y0012335D01*
X0012101Y0012472D01*
X0012183Y0012608D01*
X0012267Y0012742D01*
X0012356Y0012873D01*
X0012447Y0013002D01*
X0012542Y0013129D01*
X0012639Y0013254D01*
X0012740Y0013376D01*
X0012844Y0013495D01*
X0012951Y0013612D01*
X0013061Y0013726D01*
X0013174Y0013837D01*
X0013289Y0013946D01*
X0013407Y0014051D01*
X0013528Y0014153D01*
X0013651Y0014253D01*
X0013777Y0014349D01*
X0013905Y0014442D01*
X0014035Y0014532D01*
X0014168Y0014618D01*
X0014303Y0014702D01*
X0014439Y0014781D01*
X0014578Y0014858D01*
X0014719Y0014930D01*
X0014861Y0015000D01*
X0015005Y0015065D01*
X0015151Y0015127D01*
X0015298Y0015185D01*
X0015447Y0015240D01*
X0015597Y0015291D01*
X0015748Y0015338D01*
X0015900Y0015381D01*
X0016053Y0015420D01*
X0016208Y0015456D01*
X0016363Y0015487D01*
X0016519Y0015515D01*
X0016675Y0015539D01*
X0016832Y0015559D01*
X0016990Y0015575D01*
X0017147Y0015587D01*
X0017306Y0015595D01*
X0017464Y0015599D01*
X0017622Y0015599D01*
X0017780Y0015595D01*
X0017939Y0015587D01*
X0018096Y0015575D01*
X0018254Y0015559D01*
X0018411Y0015539D01*
X0018567Y0015515D01*
X0018723Y0015487D01*
X0018878Y0015456D01*
X0019033Y0015420D01*
X0019186Y0015381D01*
X0019338Y0015338D01*
X0019489Y0015291D01*
X0019639Y0015240D01*
X0019788Y0015185D01*
X0019935Y0015127D01*
X0020081Y0015065D01*
X0020225Y0015000D01*
X0020367Y0014930D01*
X0020508Y0014858D01*
X0020647Y0014781D01*
X0020783Y0014702D01*
X0020918Y0014618D01*
X0021051Y0014532D01*
X0021181Y0014442D01*
X0021309Y0014349D01*
X0021435Y0014253D01*
X0021558Y0014153D01*
X0021679Y0014051D01*
X0021797Y0013946D01*
X0021912Y0013837D01*
X0022025Y0013726D01*
X0022135Y0013612D01*
X0022242Y0013495D01*
X0022346Y0013376D01*
X0022447Y0013254D01*
X0022544Y0013129D01*
X0022639Y0013002D01*
X0022730Y0012873D01*
X0022819Y0012742D01*
X0022903Y0012608D01*
X0022985Y0012472D01*
X0023063Y0012335D01*
X0023137Y0012195D01*
X0023208Y0012053D01*
X0023276Y0011910D01*
X0023340Y0011765D01*
X0023400Y0011619D01*
X0023456Y0011471D01*
X0023509Y0011322D01*
X0023558Y0011171D01*
X0023603Y0011019D01*
X0023644Y0010866D01*
X0023682Y0010713D01*
X0023715Y0010558D01*
X0023745Y0010402D01*
X0023771Y0010246D01*
X0023792Y0010089D01*
X0023810Y0009932D01*
X0023824Y0009774D01*
X0023834Y0009616D01*
X0023840Y0009458D01*
X0023842Y0009300D01*
X0023840Y0009142D01*
X0023834Y0008984D01*
X0023824Y0008826D01*
X0023810Y0008668D01*
X0023792Y0008511D01*
X0023771Y0008354D01*
X0023745Y0008198D01*
X0023715Y0008042D01*
X0023682Y0007887D01*
X0023644Y0007734D01*
X0023603Y0007581D01*
X0023558Y0007429D01*
X0023509Y0007278D01*
X0023456Y0007129D01*
X0023400Y0006981D01*
X0023340Y0006835D01*
X0023276Y0006690D01*
X0023208Y0006547D01*
X0023137Y0006405D01*
X0023063Y0006265D01*
X0022985Y0006128D01*
X0022903Y0005992D01*
X0022819Y0005858D01*
X0022730Y0005727D01*
X0022639Y0005598D01*
X0022544Y0005471D01*
X0022447Y0005346D01*
X0022346Y0005224D01*
X0022242Y0005105D01*
X0022135Y0004988D01*
X0022025Y0004874D01*
X0021912Y0004763D01*
X0021797Y0004654D01*
X0021679Y0004549D01*
X0021558Y0004447D01*
X0021435Y0004347D01*
X0021309Y0004251D01*
X0021181Y0004158D01*
X0021051Y0004068D01*
X0020918Y0003982D01*
X0020783Y0003898D01*
X0020647Y0003819D01*
X0020508Y0003742D01*
X0020367Y0003670D01*
X0020225Y0003600D01*
X0020081Y0003535D01*
X0019935Y0003473D01*
X0019788Y0003415D01*
X0019639Y0003360D01*
X0019489Y0003309D01*
X0019338Y0003262D01*
X0019186Y0003219D01*
X0019033Y0003180D01*
X0018878Y0003144D01*
X0018723Y0003113D01*
X0018567Y0003085D01*
X0018411Y0003061D01*
X0018254Y0003041D01*
X0018096Y0003025D01*
X0017939Y0003013D01*
X0017780Y0003005D01*
X0017622Y0003001D01*
X0017464Y0003001D01*
X0017306Y0003005D01*
X0017147Y0003013D01*
X0016990Y0003025D01*
X0016832Y0003041D01*
X0016675Y0003061D01*
X0016519Y0003085D01*
X0016363Y0003113D01*
X0016208Y0003144D01*
X0016053Y0003180D01*
X0015900Y0003219D01*
X0015748Y0003262D01*
X0015597Y0003309D01*
X0015447Y0003360D01*
X0015298Y0003415D01*
X0015151Y0003473D01*
X0015005Y0003535D01*
X0014861Y0003600D01*
X0014719Y0003670D01*
X0014578Y0003742D01*
X0014439Y0003819D01*
X0014303Y0003898D01*
X0014168Y0003982D01*
X0014035Y0004068D01*
X0013905Y0004158D01*
X0013777Y0004251D01*
X0013651Y0004347D01*
X0013528Y0004447D01*
X0013407Y0004549D01*
X0013289Y0004654D01*
X0013174Y0004763D01*
X0013061Y0004874D01*
X0012951Y0004988D01*
X0012844Y0005105D01*
X0012740Y0005224D01*
X0012639Y0005346D01*
X0012542Y0005471D01*
X0012447Y0005598D01*
X0012356Y0005727D01*
X0012267Y0005858D01*
X0012183Y0005992D01*
X0012101Y0006128D01*
X0012023Y0006265D01*
X0011949Y0006405D01*
X0011878Y0006547D01*
X0011810Y0006690D01*
X0011746Y0006835D01*
X0011686Y0006981D01*
X0011630Y0007129D01*
X0011577Y0007278D01*
X0011528Y0007429D01*
X0011483Y0007581D01*
X0011442Y0007734D01*
X0011404Y0007887D01*
X0011371Y0008042D01*
X0011341Y0008198D01*
X0011315Y0008354D01*
X0011294Y0008511D01*
X0011276Y0008668D01*
X0011262Y0008826D01*
X0011252Y0008984D01*
X0011246Y0009142D01*
X0011244Y0009300D01*
X0103172Y0016692D02*
X0103174Y0016780D01*
X0103180Y0016868D01*
X0103190Y0016956D01*
X0103204Y0017044D01*
X0103221Y0017130D01*
X0103243Y0017216D01*
X0103268Y0017300D01*
X0103298Y0017384D01*
X0103330Y0017466D01*
X0103367Y0017546D01*
X0103407Y0017625D01*
X0103451Y0017702D01*
X0103498Y0017777D01*
X0103548Y0017849D01*
X0103602Y0017920D01*
X0103658Y0017987D01*
X0103718Y0018053D01*
X0103780Y0018115D01*
X0103846Y0018175D01*
X0103913Y0018231D01*
X0103984Y0018285D01*
X0104056Y0018335D01*
X0104131Y0018382D01*
X0104208Y0018426D01*
X0104287Y0018466D01*
X0104367Y0018503D01*
X0104449Y0018535D01*
X0104533Y0018565D01*
X0104617Y0018590D01*
X0104703Y0018612D01*
X0104789Y0018629D01*
X0104877Y0018643D01*
X0104965Y0018653D01*
X0105053Y0018659D01*
X0105141Y0018661D01*
X0105229Y0018659D01*
X0105317Y0018653D01*
X0105405Y0018643D01*
X0105493Y0018629D01*
X0105579Y0018612D01*
X0105665Y0018590D01*
X0105749Y0018565D01*
X0105833Y0018535D01*
X0105915Y0018503D01*
X0105995Y0018466D01*
X0106074Y0018426D01*
X0106151Y0018382D01*
X0106226Y0018335D01*
X0106298Y0018285D01*
X0106369Y0018231D01*
X0106436Y0018175D01*
X0106502Y0018115D01*
X0106564Y0018053D01*
X0106624Y0017987D01*
X0106680Y0017920D01*
X0106734Y0017849D01*
X0106784Y0017777D01*
X0106831Y0017702D01*
X0106875Y0017625D01*
X0106915Y0017546D01*
X0106952Y0017466D01*
X0106984Y0017384D01*
X0107014Y0017300D01*
X0107039Y0017216D01*
X0107061Y0017130D01*
X0107078Y0017044D01*
X0107092Y0016956D01*
X0107102Y0016868D01*
X0107108Y0016780D01*
X0107110Y0016692D01*
X0107108Y0016604D01*
X0107102Y0016516D01*
X0107092Y0016428D01*
X0107078Y0016340D01*
X0107061Y0016254D01*
X0107039Y0016168D01*
X0107014Y0016084D01*
X0106984Y0016000D01*
X0106952Y0015918D01*
X0106915Y0015838D01*
X0106875Y0015759D01*
X0106831Y0015682D01*
X0106784Y0015607D01*
X0106734Y0015535D01*
X0106680Y0015464D01*
X0106624Y0015397D01*
X0106564Y0015331D01*
X0106502Y0015269D01*
X0106436Y0015209D01*
X0106369Y0015153D01*
X0106298Y0015099D01*
X0106226Y0015049D01*
X0106151Y0015002D01*
X0106074Y0014958D01*
X0105995Y0014918D01*
X0105915Y0014881D01*
X0105833Y0014849D01*
X0105749Y0014819D01*
X0105665Y0014794D01*
X0105579Y0014772D01*
X0105493Y0014755D01*
X0105405Y0014741D01*
X0105317Y0014731D01*
X0105229Y0014725D01*
X0105141Y0014723D01*
X0105053Y0014725D01*
X0104965Y0014731D01*
X0104877Y0014741D01*
X0104789Y0014755D01*
X0104703Y0014772D01*
X0104617Y0014794D01*
X0104533Y0014819D01*
X0104449Y0014849D01*
X0104367Y0014881D01*
X0104287Y0014918D01*
X0104208Y0014958D01*
X0104131Y0015002D01*
X0104056Y0015049D01*
X0103984Y0015099D01*
X0103913Y0015153D01*
X0103846Y0015209D01*
X0103780Y0015269D01*
X0103718Y0015331D01*
X0103658Y0015397D01*
X0103602Y0015464D01*
X0103548Y0015535D01*
X0103498Y0015607D01*
X0103451Y0015682D01*
X0103407Y0015759D01*
X0103367Y0015838D01*
X0103330Y0015918D01*
X0103298Y0016000D01*
X0103268Y0016084D01*
X0103243Y0016168D01*
X0103221Y0016254D01*
X0103204Y0016340D01*
X0103190Y0016428D01*
X0103180Y0016516D01*
X0103174Y0016604D01*
X0103172Y0016692D01*
X0134668Y0016692D02*
X0134670Y0016780D01*
X0134676Y0016868D01*
X0134686Y0016956D01*
X0134700Y0017044D01*
X0134717Y0017130D01*
X0134739Y0017216D01*
X0134764Y0017300D01*
X0134794Y0017384D01*
X0134826Y0017466D01*
X0134863Y0017546D01*
X0134903Y0017625D01*
X0134947Y0017702D01*
X0134994Y0017777D01*
X0135044Y0017849D01*
X0135098Y0017920D01*
X0135154Y0017987D01*
X0135214Y0018053D01*
X0135276Y0018115D01*
X0135342Y0018175D01*
X0135409Y0018231D01*
X0135480Y0018285D01*
X0135552Y0018335D01*
X0135627Y0018382D01*
X0135704Y0018426D01*
X0135783Y0018466D01*
X0135863Y0018503D01*
X0135945Y0018535D01*
X0136029Y0018565D01*
X0136113Y0018590D01*
X0136199Y0018612D01*
X0136285Y0018629D01*
X0136373Y0018643D01*
X0136461Y0018653D01*
X0136549Y0018659D01*
X0136637Y0018661D01*
X0136725Y0018659D01*
X0136813Y0018653D01*
X0136901Y0018643D01*
X0136989Y0018629D01*
X0137075Y0018612D01*
X0137161Y0018590D01*
X0137245Y0018565D01*
X0137329Y0018535D01*
X0137411Y0018503D01*
X0137491Y0018466D01*
X0137570Y0018426D01*
X0137647Y0018382D01*
X0137722Y0018335D01*
X0137794Y0018285D01*
X0137865Y0018231D01*
X0137932Y0018175D01*
X0137998Y0018115D01*
X0138060Y0018053D01*
X0138120Y0017987D01*
X0138176Y0017920D01*
X0138230Y0017849D01*
X0138280Y0017777D01*
X0138327Y0017702D01*
X0138371Y0017625D01*
X0138411Y0017546D01*
X0138448Y0017466D01*
X0138480Y0017384D01*
X0138510Y0017300D01*
X0138535Y0017216D01*
X0138557Y0017130D01*
X0138574Y0017044D01*
X0138588Y0016956D01*
X0138598Y0016868D01*
X0138604Y0016780D01*
X0138606Y0016692D01*
X0138604Y0016604D01*
X0138598Y0016516D01*
X0138588Y0016428D01*
X0138574Y0016340D01*
X0138557Y0016254D01*
X0138535Y0016168D01*
X0138510Y0016084D01*
X0138480Y0016000D01*
X0138448Y0015918D01*
X0138411Y0015838D01*
X0138371Y0015759D01*
X0138327Y0015682D01*
X0138280Y0015607D01*
X0138230Y0015535D01*
X0138176Y0015464D01*
X0138120Y0015397D01*
X0138060Y0015331D01*
X0137998Y0015269D01*
X0137932Y0015209D01*
X0137865Y0015153D01*
X0137794Y0015099D01*
X0137722Y0015049D01*
X0137647Y0015002D01*
X0137570Y0014958D01*
X0137491Y0014918D01*
X0137411Y0014881D01*
X0137329Y0014849D01*
X0137245Y0014819D01*
X0137161Y0014794D01*
X0137075Y0014772D01*
X0136989Y0014755D01*
X0136901Y0014741D01*
X0136813Y0014731D01*
X0136725Y0014725D01*
X0136637Y0014723D01*
X0136549Y0014725D01*
X0136461Y0014731D01*
X0136373Y0014741D01*
X0136285Y0014755D01*
X0136199Y0014772D01*
X0136113Y0014794D01*
X0136029Y0014819D01*
X0135945Y0014849D01*
X0135863Y0014881D01*
X0135783Y0014918D01*
X0135704Y0014958D01*
X0135627Y0015002D01*
X0135552Y0015049D01*
X0135480Y0015099D01*
X0135409Y0015153D01*
X0135342Y0015209D01*
X0135276Y0015269D01*
X0135214Y0015331D01*
X0135154Y0015397D01*
X0135098Y0015464D01*
X0135044Y0015535D01*
X0134994Y0015607D01*
X0134947Y0015682D01*
X0134903Y0015759D01*
X0134863Y0015838D01*
X0134826Y0015918D01*
X0134794Y0016000D01*
X0134764Y0016084D01*
X0134739Y0016168D01*
X0134717Y0016254D01*
X0134700Y0016340D01*
X0134686Y0016428D01*
X0134676Y0016516D01*
X0134670Y0016604D01*
X0134668Y0016692D01*
X0192494Y0009300D02*
X0192496Y0009458D01*
X0192502Y0009616D01*
X0192512Y0009774D01*
X0192526Y0009932D01*
X0192544Y0010089D01*
X0192565Y0010246D01*
X0192591Y0010402D01*
X0192621Y0010558D01*
X0192654Y0010713D01*
X0192692Y0010866D01*
X0192733Y0011019D01*
X0192778Y0011171D01*
X0192827Y0011322D01*
X0192880Y0011471D01*
X0192936Y0011619D01*
X0192996Y0011765D01*
X0193060Y0011910D01*
X0193128Y0012053D01*
X0193199Y0012195D01*
X0193273Y0012335D01*
X0193351Y0012472D01*
X0193433Y0012608D01*
X0193517Y0012742D01*
X0193606Y0012873D01*
X0193697Y0013002D01*
X0193792Y0013129D01*
X0193889Y0013254D01*
X0193990Y0013376D01*
X0194094Y0013495D01*
X0194201Y0013612D01*
X0194311Y0013726D01*
X0194424Y0013837D01*
X0194539Y0013946D01*
X0194657Y0014051D01*
X0194778Y0014153D01*
X0194901Y0014253D01*
X0195027Y0014349D01*
X0195155Y0014442D01*
X0195285Y0014532D01*
X0195418Y0014618D01*
X0195553Y0014702D01*
X0195689Y0014781D01*
X0195828Y0014858D01*
X0195969Y0014930D01*
X0196111Y0015000D01*
X0196255Y0015065D01*
X0196401Y0015127D01*
X0196548Y0015185D01*
X0196697Y0015240D01*
X0196847Y0015291D01*
X0196998Y0015338D01*
X0197150Y0015381D01*
X0197303Y0015420D01*
X0197458Y0015456D01*
X0197613Y0015487D01*
X0197769Y0015515D01*
X0197925Y0015539D01*
X0198082Y0015559D01*
X0198240Y0015575D01*
X0198397Y0015587D01*
X0198556Y0015595D01*
X0198714Y0015599D01*
X0198872Y0015599D01*
X0199030Y0015595D01*
X0199189Y0015587D01*
X0199346Y0015575D01*
X0199504Y0015559D01*
X0199661Y0015539D01*
X0199817Y0015515D01*
X0199973Y0015487D01*
X0200128Y0015456D01*
X0200283Y0015420D01*
X0200436Y0015381D01*
X0200588Y0015338D01*
X0200739Y0015291D01*
X0200889Y0015240D01*
X0201038Y0015185D01*
X0201185Y0015127D01*
X0201331Y0015065D01*
X0201475Y0015000D01*
X0201617Y0014930D01*
X0201758Y0014858D01*
X0201897Y0014781D01*
X0202033Y0014702D01*
X0202168Y0014618D01*
X0202301Y0014532D01*
X0202431Y0014442D01*
X0202559Y0014349D01*
X0202685Y0014253D01*
X0202808Y0014153D01*
X0202929Y0014051D01*
X0203047Y0013946D01*
X0203162Y0013837D01*
X0203275Y0013726D01*
X0203385Y0013612D01*
X0203492Y0013495D01*
X0203596Y0013376D01*
X0203697Y0013254D01*
X0203794Y0013129D01*
X0203889Y0013002D01*
X0203980Y0012873D01*
X0204069Y0012742D01*
X0204153Y0012608D01*
X0204235Y0012472D01*
X0204313Y0012335D01*
X0204387Y0012195D01*
X0204458Y0012053D01*
X0204526Y0011910D01*
X0204590Y0011765D01*
X0204650Y0011619D01*
X0204706Y0011471D01*
X0204759Y0011322D01*
X0204808Y0011171D01*
X0204853Y0011019D01*
X0204894Y0010866D01*
X0204932Y0010713D01*
X0204965Y0010558D01*
X0204995Y0010402D01*
X0205021Y0010246D01*
X0205042Y0010089D01*
X0205060Y0009932D01*
X0205074Y0009774D01*
X0205084Y0009616D01*
X0205090Y0009458D01*
X0205092Y0009300D01*
X0205090Y0009142D01*
X0205084Y0008984D01*
X0205074Y0008826D01*
X0205060Y0008668D01*
X0205042Y0008511D01*
X0205021Y0008354D01*
X0204995Y0008198D01*
X0204965Y0008042D01*
X0204932Y0007887D01*
X0204894Y0007734D01*
X0204853Y0007581D01*
X0204808Y0007429D01*
X0204759Y0007278D01*
X0204706Y0007129D01*
X0204650Y0006981D01*
X0204590Y0006835D01*
X0204526Y0006690D01*
X0204458Y0006547D01*
X0204387Y0006405D01*
X0204313Y0006265D01*
X0204235Y0006128D01*
X0204153Y0005992D01*
X0204069Y0005858D01*
X0203980Y0005727D01*
X0203889Y0005598D01*
X0203794Y0005471D01*
X0203697Y0005346D01*
X0203596Y0005224D01*
X0203492Y0005105D01*
X0203385Y0004988D01*
X0203275Y0004874D01*
X0203162Y0004763D01*
X0203047Y0004654D01*
X0202929Y0004549D01*
X0202808Y0004447D01*
X0202685Y0004347D01*
X0202559Y0004251D01*
X0202431Y0004158D01*
X0202301Y0004068D01*
X0202168Y0003982D01*
X0202033Y0003898D01*
X0201897Y0003819D01*
X0201758Y0003742D01*
X0201617Y0003670D01*
X0201475Y0003600D01*
X0201331Y0003535D01*
X0201185Y0003473D01*
X0201038Y0003415D01*
X0200889Y0003360D01*
X0200739Y0003309D01*
X0200588Y0003262D01*
X0200436Y0003219D01*
X0200283Y0003180D01*
X0200128Y0003144D01*
X0199973Y0003113D01*
X0199817Y0003085D01*
X0199661Y0003061D01*
X0199504Y0003041D01*
X0199346Y0003025D01*
X0199189Y0003013D01*
X0199030Y0003005D01*
X0198872Y0003001D01*
X0198714Y0003001D01*
X0198556Y0003005D01*
X0198397Y0003013D01*
X0198240Y0003025D01*
X0198082Y0003041D01*
X0197925Y0003061D01*
X0197769Y0003085D01*
X0197613Y0003113D01*
X0197458Y0003144D01*
X0197303Y0003180D01*
X0197150Y0003219D01*
X0196998Y0003262D01*
X0196847Y0003309D01*
X0196697Y0003360D01*
X0196548Y0003415D01*
X0196401Y0003473D01*
X0196255Y0003535D01*
X0196111Y0003600D01*
X0195969Y0003670D01*
X0195828Y0003742D01*
X0195689Y0003819D01*
X0195553Y0003898D01*
X0195418Y0003982D01*
X0195285Y0004068D01*
X0195155Y0004158D01*
X0195027Y0004251D01*
X0194901Y0004347D01*
X0194778Y0004447D01*
X0194657Y0004549D01*
X0194539Y0004654D01*
X0194424Y0004763D01*
X0194311Y0004874D01*
X0194201Y0004988D01*
X0194094Y0005105D01*
X0193990Y0005224D01*
X0193889Y0005346D01*
X0193792Y0005471D01*
X0193697Y0005598D01*
X0193606Y0005727D01*
X0193517Y0005858D01*
X0193433Y0005992D01*
X0193351Y0006128D01*
X0193273Y0006265D01*
X0193199Y0006405D01*
X0193128Y0006547D01*
X0193060Y0006690D01*
X0192996Y0006835D01*
X0192936Y0006981D01*
X0192880Y0007129D01*
X0192827Y0007278D01*
X0192778Y0007429D01*
X0192733Y0007581D01*
X0192692Y0007734D01*
X0192654Y0007887D01*
X0192621Y0008042D01*
X0192591Y0008198D01*
X0192565Y0008354D01*
X0192544Y0008511D01*
X0192526Y0008668D01*
X0192512Y0008826D01*
X0192502Y0008984D01*
X0192496Y0009142D01*
X0192494Y0009300D01*
X0192494Y0190550D02*
X0192496Y0190708D01*
X0192502Y0190866D01*
X0192512Y0191024D01*
X0192526Y0191182D01*
X0192544Y0191339D01*
X0192565Y0191496D01*
X0192591Y0191652D01*
X0192621Y0191808D01*
X0192654Y0191963D01*
X0192692Y0192116D01*
X0192733Y0192269D01*
X0192778Y0192421D01*
X0192827Y0192572D01*
X0192880Y0192721D01*
X0192936Y0192869D01*
X0192996Y0193015D01*
X0193060Y0193160D01*
X0193128Y0193303D01*
X0193199Y0193445D01*
X0193273Y0193585D01*
X0193351Y0193722D01*
X0193433Y0193858D01*
X0193517Y0193992D01*
X0193606Y0194123D01*
X0193697Y0194252D01*
X0193792Y0194379D01*
X0193889Y0194504D01*
X0193990Y0194626D01*
X0194094Y0194745D01*
X0194201Y0194862D01*
X0194311Y0194976D01*
X0194424Y0195087D01*
X0194539Y0195196D01*
X0194657Y0195301D01*
X0194778Y0195403D01*
X0194901Y0195503D01*
X0195027Y0195599D01*
X0195155Y0195692D01*
X0195285Y0195782D01*
X0195418Y0195868D01*
X0195553Y0195952D01*
X0195689Y0196031D01*
X0195828Y0196108D01*
X0195969Y0196180D01*
X0196111Y0196250D01*
X0196255Y0196315D01*
X0196401Y0196377D01*
X0196548Y0196435D01*
X0196697Y0196490D01*
X0196847Y0196541D01*
X0196998Y0196588D01*
X0197150Y0196631D01*
X0197303Y0196670D01*
X0197458Y0196706D01*
X0197613Y0196737D01*
X0197769Y0196765D01*
X0197925Y0196789D01*
X0198082Y0196809D01*
X0198240Y0196825D01*
X0198397Y0196837D01*
X0198556Y0196845D01*
X0198714Y0196849D01*
X0198872Y0196849D01*
X0199030Y0196845D01*
X0199189Y0196837D01*
X0199346Y0196825D01*
X0199504Y0196809D01*
X0199661Y0196789D01*
X0199817Y0196765D01*
X0199973Y0196737D01*
X0200128Y0196706D01*
X0200283Y0196670D01*
X0200436Y0196631D01*
X0200588Y0196588D01*
X0200739Y0196541D01*
X0200889Y0196490D01*
X0201038Y0196435D01*
X0201185Y0196377D01*
X0201331Y0196315D01*
X0201475Y0196250D01*
X0201617Y0196180D01*
X0201758Y0196108D01*
X0201897Y0196031D01*
X0202033Y0195952D01*
X0202168Y0195868D01*
X0202301Y0195782D01*
X0202431Y0195692D01*
X0202559Y0195599D01*
X0202685Y0195503D01*
X0202808Y0195403D01*
X0202929Y0195301D01*
X0203047Y0195196D01*
X0203162Y0195087D01*
X0203275Y0194976D01*
X0203385Y0194862D01*
X0203492Y0194745D01*
X0203596Y0194626D01*
X0203697Y0194504D01*
X0203794Y0194379D01*
X0203889Y0194252D01*
X0203980Y0194123D01*
X0204069Y0193992D01*
X0204153Y0193858D01*
X0204235Y0193722D01*
X0204313Y0193585D01*
X0204387Y0193445D01*
X0204458Y0193303D01*
X0204526Y0193160D01*
X0204590Y0193015D01*
X0204650Y0192869D01*
X0204706Y0192721D01*
X0204759Y0192572D01*
X0204808Y0192421D01*
X0204853Y0192269D01*
X0204894Y0192116D01*
X0204932Y0191963D01*
X0204965Y0191808D01*
X0204995Y0191652D01*
X0205021Y0191496D01*
X0205042Y0191339D01*
X0205060Y0191182D01*
X0205074Y0191024D01*
X0205084Y0190866D01*
X0205090Y0190708D01*
X0205092Y0190550D01*
X0205090Y0190392D01*
X0205084Y0190234D01*
X0205074Y0190076D01*
X0205060Y0189918D01*
X0205042Y0189761D01*
X0205021Y0189604D01*
X0204995Y0189448D01*
X0204965Y0189292D01*
X0204932Y0189137D01*
X0204894Y0188984D01*
X0204853Y0188831D01*
X0204808Y0188679D01*
X0204759Y0188528D01*
X0204706Y0188379D01*
X0204650Y0188231D01*
X0204590Y0188085D01*
X0204526Y0187940D01*
X0204458Y0187797D01*
X0204387Y0187655D01*
X0204313Y0187515D01*
X0204235Y0187378D01*
X0204153Y0187242D01*
X0204069Y0187108D01*
X0203980Y0186977D01*
X0203889Y0186848D01*
X0203794Y0186721D01*
X0203697Y0186596D01*
X0203596Y0186474D01*
X0203492Y0186355D01*
X0203385Y0186238D01*
X0203275Y0186124D01*
X0203162Y0186013D01*
X0203047Y0185904D01*
X0202929Y0185799D01*
X0202808Y0185697D01*
X0202685Y0185597D01*
X0202559Y0185501D01*
X0202431Y0185408D01*
X0202301Y0185318D01*
X0202168Y0185232D01*
X0202033Y0185148D01*
X0201897Y0185069D01*
X0201758Y0184992D01*
X0201617Y0184920D01*
X0201475Y0184850D01*
X0201331Y0184785D01*
X0201185Y0184723D01*
X0201038Y0184665D01*
X0200889Y0184610D01*
X0200739Y0184559D01*
X0200588Y0184512D01*
X0200436Y0184469D01*
X0200283Y0184430D01*
X0200128Y0184394D01*
X0199973Y0184363D01*
X0199817Y0184335D01*
X0199661Y0184311D01*
X0199504Y0184291D01*
X0199346Y0184275D01*
X0199189Y0184263D01*
X0199030Y0184255D01*
X0198872Y0184251D01*
X0198714Y0184251D01*
X0198556Y0184255D01*
X0198397Y0184263D01*
X0198240Y0184275D01*
X0198082Y0184291D01*
X0197925Y0184311D01*
X0197769Y0184335D01*
X0197613Y0184363D01*
X0197458Y0184394D01*
X0197303Y0184430D01*
X0197150Y0184469D01*
X0196998Y0184512D01*
X0196847Y0184559D01*
X0196697Y0184610D01*
X0196548Y0184665D01*
X0196401Y0184723D01*
X0196255Y0184785D01*
X0196111Y0184850D01*
X0195969Y0184920D01*
X0195828Y0184992D01*
X0195689Y0185069D01*
X0195553Y0185148D01*
X0195418Y0185232D01*
X0195285Y0185318D01*
X0195155Y0185408D01*
X0195027Y0185501D01*
X0194901Y0185597D01*
X0194778Y0185697D01*
X0194657Y0185799D01*
X0194539Y0185904D01*
X0194424Y0186013D01*
X0194311Y0186124D01*
X0194201Y0186238D01*
X0194094Y0186355D01*
X0193990Y0186474D01*
X0193889Y0186596D01*
X0193792Y0186721D01*
X0193697Y0186848D01*
X0193606Y0186977D01*
X0193517Y0187108D01*
X0193433Y0187242D01*
X0193351Y0187378D01*
X0193273Y0187515D01*
X0193199Y0187655D01*
X0193128Y0187797D01*
X0193060Y0187940D01*
X0192996Y0188085D01*
X0192936Y0188231D01*
X0192880Y0188379D01*
X0192827Y0188528D01*
X0192778Y0188679D01*
X0192733Y0188831D01*
X0192692Y0188984D01*
X0192654Y0189137D01*
X0192621Y0189292D01*
X0192591Y0189448D01*
X0192565Y0189604D01*
X0192544Y0189761D01*
X0192526Y0189918D01*
X0192512Y0190076D01*
X0192502Y0190234D01*
X0192496Y0190392D01*
X0192494Y0190550D01*
X0011244Y0190550D02*
X0011246Y0190708D01*
X0011252Y0190866D01*
X0011262Y0191024D01*
X0011276Y0191182D01*
X0011294Y0191339D01*
X0011315Y0191496D01*
X0011341Y0191652D01*
X0011371Y0191808D01*
X0011404Y0191963D01*
X0011442Y0192116D01*
X0011483Y0192269D01*
X0011528Y0192421D01*
X0011577Y0192572D01*
X0011630Y0192721D01*
X0011686Y0192869D01*
X0011746Y0193015D01*
X0011810Y0193160D01*
X0011878Y0193303D01*
X0011949Y0193445D01*
X0012023Y0193585D01*
X0012101Y0193722D01*
X0012183Y0193858D01*
X0012267Y0193992D01*
X0012356Y0194123D01*
X0012447Y0194252D01*
X0012542Y0194379D01*
X0012639Y0194504D01*
X0012740Y0194626D01*
X0012844Y0194745D01*
X0012951Y0194862D01*
X0013061Y0194976D01*
X0013174Y0195087D01*
X0013289Y0195196D01*
X0013407Y0195301D01*
X0013528Y0195403D01*
X0013651Y0195503D01*
X0013777Y0195599D01*
X0013905Y0195692D01*
X0014035Y0195782D01*
X0014168Y0195868D01*
X0014303Y0195952D01*
X0014439Y0196031D01*
X0014578Y0196108D01*
X0014719Y0196180D01*
X0014861Y0196250D01*
X0015005Y0196315D01*
X0015151Y0196377D01*
X0015298Y0196435D01*
X0015447Y0196490D01*
X0015597Y0196541D01*
X0015748Y0196588D01*
X0015900Y0196631D01*
X0016053Y0196670D01*
X0016208Y0196706D01*
X0016363Y0196737D01*
X0016519Y0196765D01*
X0016675Y0196789D01*
X0016832Y0196809D01*
X0016990Y0196825D01*
X0017147Y0196837D01*
X0017306Y0196845D01*
X0017464Y0196849D01*
X0017622Y0196849D01*
X0017780Y0196845D01*
X0017939Y0196837D01*
X0018096Y0196825D01*
X0018254Y0196809D01*
X0018411Y0196789D01*
X0018567Y0196765D01*
X0018723Y0196737D01*
X0018878Y0196706D01*
X0019033Y0196670D01*
X0019186Y0196631D01*
X0019338Y0196588D01*
X0019489Y0196541D01*
X0019639Y0196490D01*
X0019788Y0196435D01*
X0019935Y0196377D01*
X0020081Y0196315D01*
X0020225Y0196250D01*
X0020367Y0196180D01*
X0020508Y0196108D01*
X0020647Y0196031D01*
X0020783Y0195952D01*
X0020918Y0195868D01*
X0021051Y0195782D01*
X0021181Y0195692D01*
X0021309Y0195599D01*
X0021435Y0195503D01*
X0021558Y0195403D01*
X0021679Y0195301D01*
X0021797Y0195196D01*
X0021912Y0195087D01*
X0022025Y0194976D01*
X0022135Y0194862D01*
X0022242Y0194745D01*
X0022346Y0194626D01*
X0022447Y0194504D01*
X0022544Y0194379D01*
X0022639Y0194252D01*
X0022730Y0194123D01*
X0022819Y0193992D01*
X0022903Y0193858D01*
X0022985Y0193722D01*
X0023063Y0193585D01*
X0023137Y0193445D01*
X0023208Y0193303D01*
X0023276Y0193160D01*
X0023340Y0193015D01*
X0023400Y0192869D01*
X0023456Y0192721D01*
X0023509Y0192572D01*
X0023558Y0192421D01*
X0023603Y0192269D01*
X0023644Y0192116D01*
X0023682Y0191963D01*
X0023715Y0191808D01*
X0023745Y0191652D01*
X0023771Y0191496D01*
X0023792Y0191339D01*
X0023810Y0191182D01*
X0023824Y0191024D01*
X0023834Y0190866D01*
X0023840Y0190708D01*
X0023842Y0190550D01*
X0023840Y0190392D01*
X0023834Y0190234D01*
X0023824Y0190076D01*
X0023810Y0189918D01*
X0023792Y0189761D01*
X0023771Y0189604D01*
X0023745Y0189448D01*
X0023715Y0189292D01*
X0023682Y0189137D01*
X0023644Y0188984D01*
X0023603Y0188831D01*
X0023558Y0188679D01*
X0023509Y0188528D01*
X0023456Y0188379D01*
X0023400Y0188231D01*
X0023340Y0188085D01*
X0023276Y0187940D01*
X0023208Y0187797D01*
X0023137Y0187655D01*
X0023063Y0187515D01*
X0022985Y0187378D01*
X0022903Y0187242D01*
X0022819Y0187108D01*
X0022730Y0186977D01*
X0022639Y0186848D01*
X0022544Y0186721D01*
X0022447Y0186596D01*
X0022346Y0186474D01*
X0022242Y0186355D01*
X0022135Y0186238D01*
X0022025Y0186124D01*
X0021912Y0186013D01*
X0021797Y0185904D01*
X0021679Y0185799D01*
X0021558Y0185697D01*
X0021435Y0185597D01*
X0021309Y0185501D01*
X0021181Y0185408D01*
X0021051Y0185318D01*
X0020918Y0185232D01*
X0020783Y0185148D01*
X0020647Y0185069D01*
X0020508Y0184992D01*
X0020367Y0184920D01*
X0020225Y0184850D01*
X0020081Y0184785D01*
X0019935Y0184723D01*
X0019788Y0184665D01*
X0019639Y0184610D01*
X0019489Y0184559D01*
X0019338Y0184512D01*
X0019186Y0184469D01*
X0019033Y0184430D01*
X0018878Y0184394D01*
X0018723Y0184363D01*
X0018567Y0184335D01*
X0018411Y0184311D01*
X0018254Y0184291D01*
X0018096Y0184275D01*
X0017939Y0184263D01*
X0017780Y0184255D01*
X0017622Y0184251D01*
X0017464Y0184251D01*
X0017306Y0184255D01*
X0017147Y0184263D01*
X0016990Y0184275D01*
X0016832Y0184291D01*
X0016675Y0184311D01*
X0016519Y0184335D01*
X0016363Y0184363D01*
X0016208Y0184394D01*
X0016053Y0184430D01*
X0015900Y0184469D01*
X0015748Y0184512D01*
X0015597Y0184559D01*
X0015447Y0184610D01*
X0015298Y0184665D01*
X0015151Y0184723D01*
X0015005Y0184785D01*
X0014861Y0184850D01*
X0014719Y0184920D01*
X0014578Y0184992D01*
X0014439Y0185069D01*
X0014303Y0185148D01*
X0014168Y0185232D01*
X0014035Y0185318D01*
X0013905Y0185408D01*
X0013777Y0185501D01*
X0013651Y0185597D01*
X0013528Y0185697D01*
X0013407Y0185799D01*
X0013289Y0185904D01*
X0013174Y0186013D01*
X0013061Y0186124D01*
X0012951Y0186238D01*
X0012844Y0186355D01*
X0012740Y0186474D01*
X0012639Y0186596D01*
X0012542Y0186721D01*
X0012447Y0186848D01*
X0012356Y0186977D01*
X0012267Y0187108D01*
X0012183Y0187242D01*
X0012101Y0187378D01*
X0012023Y0187515D01*
X0011949Y0187655D01*
X0011878Y0187797D01*
X0011810Y0187940D01*
X0011746Y0188085D01*
X0011686Y0188231D01*
X0011630Y0188379D01*
X0011577Y0188528D01*
X0011528Y0188679D01*
X0011483Y0188831D01*
X0011442Y0188984D01*
X0011404Y0189137D01*
X0011371Y0189292D01*
X0011341Y0189448D01*
X0011315Y0189604D01*
X0011294Y0189761D01*
X0011276Y0189918D01*
X0011262Y0190076D01*
X0011252Y0190234D01*
X0011246Y0190392D01*
X0011244Y0190550D01*
D11*
X0039610Y0169989D03*
X0062995Y0154320D03*
X0051657Y0130580D03*
X0092680Y0135304D03*
X0092995Y0154320D03*
X0125043Y0188316D03*
X0135043Y0188316D03*
X0146499Y0191879D03*
X0176499Y0191879D03*
X0092680Y0105304D03*
X0087986Y0090934D03*
X0087986Y0080934D03*
X0074019Y0081209D03*
X0066519Y0086209D03*
X0074019Y0091209D03*
X0082484Y0051997D03*
X0082484Y0041997D03*
X0089127Y0026574D03*
X0089127Y0016574D03*
X0063862Y0015619D03*
X0063862Y0025619D03*
X0138379Y0033129D03*
X0168379Y0033129D03*
X0180476Y0092863D03*
D12*
X0180476Y0102863D03*
X0051657Y0110580D03*
X0039610Y0189989D03*
D13*
X0132679Y0174241D02*
X0137879Y0174241D01*
X0137879Y0164241D02*
X0132679Y0164241D01*
X0132679Y0154241D02*
X0137879Y0154241D01*
X0137879Y0144241D02*
X0132679Y0144241D01*
X0132679Y0134241D02*
X0137879Y0134241D01*
X0137879Y0124241D02*
X0132679Y0124241D01*
X0132679Y0114241D02*
X0137879Y0114241D01*
X0137879Y0104241D02*
X0132679Y0104241D01*
X0132679Y0094241D02*
X0137879Y0094241D01*
X0137879Y0084241D02*
X0132679Y0084241D01*
X0132679Y0074241D02*
X0137879Y0074241D01*
X0137879Y0064241D02*
X0132679Y0064241D01*
X0132679Y0054241D02*
X0137879Y0054241D01*
X0137879Y0044241D02*
X0132679Y0044241D01*
X0162679Y0044241D02*
X0167879Y0044241D01*
X0167879Y0054241D02*
X0162679Y0054241D01*
X0162679Y0064241D02*
X0167879Y0064241D01*
X0167879Y0074241D02*
X0162679Y0074241D01*
X0162679Y0084241D02*
X0167879Y0084241D01*
X0167879Y0094241D02*
X0162679Y0094241D01*
X0162679Y0104241D02*
X0167879Y0104241D01*
X0167879Y0114241D02*
X0162679Y0114241D01*
X0162679Y0124241D02*
X0167879Y0124241D01*
X0167879Y0134241D02*
X0162679Y0134241D01*
X0162679Y0144241D02*
X0167879Y0144241D01*
X0167879Y0154241D02*
X0162679Y0154241D01*
X0162679Y0164241D02*
X0167879Y0164241D01*
X0167879Y0174241D02*
X0162679Y0174241D01*
D14*
X0202543Y0126800D03*
X0202543Y0116800D03*
X0202543Y0106800D03*
X0202543Y0096800D03*
X0202543Y0086800D03*
X0202543Y0076800D03*
X0202543Y0066800D03*
X0119267Y0086643D03*
X0120267Y0096643D03*
X0119267Y0106643D03*
X0109491Y0187194D03*
X0099491Y0187194D03*
X0089491Y0187194D03*
X0079491Y0187194D03*
X0069491Y0187194D03*
X0059491Y0187194D03*
X0015043Y0126800D03*
X0015043Y0116800D03*
X0015043Y0106800D03*
X0015043Y0096800D03*
X0015043Y0086800D03*
X0015043Y0076800D03*
X0015043Y0066800D03*
D15*
X0015043Y0136800D03*
X0202543Y0136800D03*
D16*
X0128763Y0016692D03*
X0120889Y0016692D03*
X0113015Y0016692D03*
X0050121Y0034251D03*
X0045397Y0037400D03*
X0050121Y0040550D03*
X0045397Y0043700D03*
X0050121Y0046849D03*
D17*
X0030043Y0054920D03*
X0030043Y0026180D03*
D18*
X0056293Y0061800D03*
X0110043Y0046800D03*
X0123793Y0073050D03*
X0145043Y0081800D03*
X0112543Y0114300D03*
X0090043Y0121800D03*
X0086293Y0144300D03*
X0100043Y0144300D03*
X0113793Y0149300D03*
X0122543Y0154300D03*
X0092543Y0174300D03*
X0077543Y0174300D03*
X0065043Y0121800D03*
X0095043Y0011800D03*
X0128793Y0011800D03*
X0175043Y0011800D03*
D19*
X0128793Y0011800D01*
X0095043Y0011800D01*
X0091578Y0012802D02*
X0091458Y0012513D01*
X0091458Y0011087D01*
X0092004Y0009770D01*
X0092174Y0009600D01*
X0044971Y0009600D01*
X0041291Y0035358D01*
X0041519Y0034809D01*
X0042806Y0033522D01*
X0044487Y0032826D01*
X0045984Y0032826D01*
X0046067Y0032571D01*
X0046380Y0031958D01*
X0046784Y0031401D01*
X0047271Y0030914D01*
X0047828Y0030509D01*
X0048442Y0030196D01*
X0049097Y0029984D01*
X0049777Y0029876D01*
X0050121Y0029876D01*
X0050121Y0034251D01*
X0050121Y0034251D01*
X0054496Y0034251D01*
X0054496Y0034595D01*
X0054388Y0035275D01*
X0054176Y0035930D01*
X0053863Y0036544D01*
X0053458Y0037101D01*
X0053300Y0037259D01*
X0053791Y0037750D01*
X0060133Y0037750D01*
X0067669Y0030214D01*
X0068457Y0029426D01*
X0069486Y0029000D01*
X0085048Y0029000D01*
X0084527Y0028479D01*
X0084527Y0024668D01*
X0087222Y0021974D01*
X0091033Y0021974D01*
X0093727Y0024668D01*
X0093727Y0028479D01*
X0093206Y0029000D01*
X0118883Y0029000D01*
X0121419Y0026464D01*
X0122207Y0025676D01*
X0123236Y0025250D01*
X0176850Y0025250D01*
X0177879Y0025676D01*
X0181166Y0028964D01*
X0181593Y0029993D01*
X0181593Y0083947D01*
X0181643Y0084145D01*
X0181593Y0084499D01*
X0181593Y0084857D01*
X0181515Y0085045D01*
X0181486Y0085247D01*
X0181303Y0085555D01*
X0181166Y0085886D01*
X0181022Y0086030D01*
X0180918Y0086206D01*
X0180632Y0086421D01*
X0180379Y0086674D01*
X0180190Y0086752D01*
X0176593Y0089450D01*
X0176593Y0090241D01*
X0178570Y0088263D01*
X0182381Y0088263D01*
X0185076Y0090958D01*
X0185076Y0094768D01*
X0182381Y0097463D01*
X0178570Y0097463D01*
X0176593Y0095485D01*
X0176593Y0100241D01*
X0177870Y0098963D01*
X0179561Y0098263D01*
X0181391Y0098263D01*
X0183081Y0098963D01*
X0184375Y0100257D01*
X0185076Y0101948D01*
X0185076Y0103778D01*
X0184375Y0105469D01*
X0183081Y0106763D01*
X0181391Y0107463D01*
X0179561Y0107463D01*
X0177870Y0106763D01*
X0176576Y0105469D01*
X0175876Y0103778D01*
X0175876Y0102473D01*
X0173775Y0105625D01*
X0173666Y0105886D01*
X0173469Y0106084D01*
X0173313Y0106317D01*
X0173079Y0106474D01*
X0172879Y0106674D01*
X0172620Y0106781D01*
X0172388Y0106936D01*
X0172111Y0106992D01*
X0171850Y0107100D01*
X0171570Y0107100D01*
X0171514Y0107111D01*
X0170485Y0108141D01*
X0168794Y0108841D01*
X0161764Y0108841D01*
X0160073Y0108141D01*
X0158779Y0106847D01*
X0158079Y0105156D01*
X0158079Y0103326D01*
X0158779Y0101635D01*
X0160073Y0100341D01*
X0161764Y0099641D01*
X0168794Y0099641D01*
X0170485Y0100341D01*
X0170534Y0100391D01*
X0170993Y0099702D01*
X0170993Y0097633D01*
X0170485Y0098141D01*
X0168794Y0098841D01*
X0161764Y0098841D01*
X0160073Y0098141D01*
X0158779Y0096847D01*
X0158079Y0095156D01*
X0158079Y0093326D01*
X0158779Y0091635D01*
X0160073Y0090341D01*
X0161764Y0089641D01*
X0168794Y0089641D01*
X0170485Y0090341D01*
X0170993Y0090849D01*
X0170993Y0088403D01*
X0170942Y0088205D01*
X0170993Y0087851D01*
X0170993Y0087633D01*
X0170485Y0088141D01*
X0168794Y0088841D01*
X0161764Y0088841D01*
X0160073Y0088141D01*
X0158779Y0086847D01*
X0158079Y0085156D01*
X0158079Y0083326D01*
X0158779Y0081635D01*
X0160073Y0080341D01*
X0161764Y0079641D01*
X0168794Y0079641D01*
X0170485Y0080341D01*
X0171779Y0081635D01*
X0172479Y0083326D01*
X0172479Y0085156D01*
X0172275Y0085648D01*
X0172395Y0085598D01*
X0175993Y0082900D01*
X0175993Y0031710D01*
X0175133Y0030850D01*
X0172606Y0030850D01*
X0172979Y0031223D01*
X0172979Y0035034D01*
X0170285Y0037729D01*
X0166474Y0037729D01*
X0163779Y0035034D01*
X0163779Y0031223D01*
X0164153Y0030850D01*
X0142606Y0030850D01*
X0142979Y0031223D01*
X0142979Y0035034D01*
X0142608Y0035405D01*
X0146629Y0039426D01*
X0147416Y0040214D01*
X0147843Y0041243D01*
X0147843Y0072357D01*
X0147416Y0073386D01*
X0144916Y0075886D01*
X0144129Y0076674D01*
X0143100Y0077100D01*
X0141525Y0077100D01*
X0140485Y0078141D01*
X0138794Y0078841D01*
X0131764Y0078841D01*
X0130073Y0078141D01*
X0128779Y0076847D01*
X0128079Y0075156D01*
X0128079Y0073326D01*
X0128779Y0071635D01*
X0130073Y0070341D01*
X0131764Y0069641D01*
X0138794Y0069641D01*
X0140485Y0070341D01*
X0141513Y0071370D01*
X0142243Y0070640D01*
X0142243Y0065726D01*
X0141779Y0066847D01*
X0140485Y0068141D01*
X0138794Y0068841D01*
X0131764Y0068841D01*
X0130073Y0068141D01*
X0129033Y0067100D01*
X0123702Y0067100D01*
X0112879Y0077924D01*
X0111850Y0078350D01*
X0091624Y0078350D01*
X0092386Y0079111D01*
X0092386Y0080934D01*
X0092386Y0082756D01*
X0089808Y0085334D01*
X0087986Y0085334D01*
X0087986Y0080934D01*
X0092386Y0080934D01*
X0087986Y0080934D01*
X0087986Y0080934D01*
X0087985Y0080934D01*
X0087985Y0080934D01*
X0083586Y0080934D01*
X0083586Y0082756D01*
X0086163Y0085334D01*
X0087985Y0085334D01*
X0087985Y0080934D01*
X0083586Y0080934D01*
X0083586Y0079111D01*
X0084347Y0078350D01*
X0077382Y0078350D01*
X0078419Y0079387D01*
X0078419Y0081209D01*
X0074019Y0081209D01*
X0069619Y0081209D01*
X0069619Y0079387D01*
X0070656Y0078350D01*
X0062452Y0078350D01*
X0051629Y0089174D01*
X0050600Y0089600D01*
X0020052Y0089600D01*
X0019875Y0090029D01*
X0018271Y0091632D01*
X0017866Y0091800D01*
X0018271Y0091968D01*
X0019875Y0093571D01*
X0020052Y0094000D01*
X0038434Y0094000D01*
X0039463Y0094426D01*
X0051017Y0105980D01*
X0052572Y0105980D01*
X0054262Y0106680D01*
X0055362Y0107780D01*
X0075291Y0107780D01*
X0120223Y0072301D01*
X0120754Y0071020D01*
X0121762Y0070011D01*
X0123080Y0069466D01*
X0124506Y0069466D01*
X0125823Y0070011D01*
X0126831Y0071020D01*
X0127377Y0072337D01*
X0127377Y0073763D01*
X0126831Y0075080D01*
X0125823Y0076089D01*
X0124506Y0076634D01*
X0123772Y0076634D01*
X0118315Y0080943D01*
X0120401Y0080943D01*
X0122496Y0081810D01*
X0124099Y0083414D01*
X0124967Y0085509D01*
X0124967Y0087776D01*
X0124099Y0089871D01*
X0122496Y0091475D01*
X0122348Y0091536D01*
X0122378Y0091545D01*
X0123150Y0091938D01*
X0123850Y0092447D01*
X0124462Y0093060D01*
X0124971Y0093760D01*
X0125364Y0094531D01*
X0125632Y0095355D01*
X0125767Y0096210D01*
X0125767Y0096442D01*
X0120467Y0096442D01*
X0120467Y0096843D01*
X0125767Y0096843D01*
X0125767Y0097075D01*
X0125632Y0097930D01*
X0125364Y0098754D01*
X0124971Y0099525D01*
X0124462Y0100226D01*
X0123850Y0100838D01*
X0123150Y0101347D01*
X0122378Y0101740D01*
X0122348Y0101749D01*
X0122496Y0101810D01*
X0124099Y0103414D01*
X0124967Y0105509D01*
X0124967Y0107776D01*
X0124099Y0109871D01*
X0122496Y0111475D01*
X0122435Y0111500D01*
X0128914Y0111500D01*
X0130073Y0110341D01*
X0131764Y0109641D01*
X0138794Y0109641D01*
X0140485Y0110341D01*
X0141779Y0111635D01*
X0142243Y0112756D01*
X0142243Y0105726D01*
X0141779Y0106847D01*
X0140485Y0108141D01*
X0138794Y0108841D01*
X0131764Y0108841D01*
X0130073Y0108141D01*
X0128779Y0106847D01*
X0128079Y0105156D01*
X0128079Y0103326D01*
X0128779Y0101635D01*
X0130073Y0100341D01*
X0131764Y0099641D01*
X0138794Y0099641D01*
X0140485Y0100341D01*
X0141779Y0101635D01*
X0142243Y0102756D01*
X0142243Y0095726D01*
X0141779Y0096847D01*
X0140485Y0098141D01*
X0138794Y0098841D01*
X0131764Y0098841D01*
X0130073Y0098141D01*
X0128779Y0096847D01*
X0128079Y0095156D01*
X0128079Y0093326D01*
X0128779Y0091635D01*
X0130073Y0090341D01*
X0131764Y0089641D01*
X0138794Y0089641D01*
X0140485Y0090341D01*
X0141779Y0091635D01*
X0142243Y0092756D01*
X0142243Y0085726D01*
X0141779Y0086847D01*
X0140485Y0088141D01*
X0138794Y0088841D01*
X0131764Y0088841D01*
X0130073Y0088141D01*
X0128779Y0086847D01*
X0128079Y0085156D01*
X0128079Y0083326D01*
X0128779Y0081635D01*
X0130073Y0080341D01*
X0131764Y0079641D01*
X0138794Y0079641D01*
X0140485Y0080341D01*
X0141458Y0081315D01*
X0141458Y0081087D01*
X0142004Y0079770D01*
X0143012Y0078761D01*
X0144330Y0078216D01*
X0145756Y0078216D01*
X0147073Y0078761D01*
X0148081Y0079770D01*
X0148627Y0081087D01*
X0148627Y0082513D01*
X0148081Y0083830D01*
X0147843Y0084069D01*
X0147843Y0175640D01*
X0151306Y0179103D01*
X0177308Y0181467D01*
X0177373Y0181450D01*
X0177860Y0181517D01*
X0178351Y0181562D01*
X0178410Y0181593D01*
X0178476Y0181602D01*
X0178901Y0181851D01*
X0179337Y0182080D01*
X0179380Y0182131D01*
X0179438Y0182165D01*
X0179735Y0182557D01*
X0180050Y0182935D01*
X0180070Y0182999D01*
X0180110Y0183052D01*
X0180235Y0183529D01*
X0180382Y0183999D01*
X0180375Y0184065D01*
X0180392Y0184130D01*
X0180325Y0184618D01*
X0180281Y0185108D01*
X0180250Y0185167D01*
X0179771Y0188645D01*
X0181099Y0189973D01*
X0181099Y0193784D01*
X0178405Y0196479D01*
X0174594Y0196479D01*
X0171899Y0193784D01*
X0171899Y0189973D01*
X0174260Y0187612D01*
X0174369Y0186823D01*
X0149916Y0184600D01*
X0149486Y0184600D01*
X0149365Y0184550D01*
X0149234Y0184538D01*
X0148854Y0184338D01*
X0148457Y0184174D01*
X0148364Y0184081D01*
X0148248Y0184020D01*
X0147973Y0183690D01*
X0143457Y0179174D01*
X0142669Y0178386D01*
X0142243Y0177357D01*
X0142243Y0175726D01*
X0141779Y0176847D01*
X0140485Y0178141D01*
X0138794Y0178841D01*
X0131764Y0178841D01*
X0130073Y0178141D01*
X0128779Y0176847D01*
X0128079Y0175156D01*
X0128079Y0173326D01*
X0128779Y0171635D01*
X0130073Y0170341D01*
X0131764Y0169641D01*
X0138794Y0169641D01*
X0140485Y0170341D01*
X0141779Y0171635D01*
X0142243Y0172756D01*
X0142243Y0165726D01*
X0141779Y0166847D01*
X0140485Y0168141D01*
X0138794Y0168841D01*
X0131764Y0168841D01*
X0130073Y0168141D01*
X0128779Y0166847D01*
X0128079Y0165156D01*
X0128079Y0163326D01*
X0128779Y0161635D01*
X0130073Y0160341D01*
X0131764Y0159641D01*
X0138794Y0159641D01*
X0140485Y0160341D01*
X0141779Y0161635D01*
X0142243Y0162756D01*
X0142243Y0155726D01*
X0141779Y0156847D01*
X0140485Y0158141D01*
X0138794Y0158841D01*
X0131764Y0158841D01*
X0130073Y0158141D01*
X0128779Y0156847D01*
X0128079Y0155156D01*
X0128079Y0153326D01*
X0128587Y0152100D01*
X0125411Y0152100D01*
X0125581Y0152270D01*
X0126127Y0153587D01*
X0126127Y0155013D01*
X0125581Y0156330D01*
X0124573Y0157339D01*
X0123256Y0157884D01*
X0121895Y0157884D01*
X0102291Y0168983D01*
X0102291Y0182184D01*
X0102720Y0182361D01*
X0104324Y0183965D01*
X0104491Y0184370D01*
X0104659Y0183965D01*
X0106263Y0182361D01*
X0108358Y0181494D01*
X0110625Y0181494D01*
X0112720Y0182361D01*
X0114324Y0183965D01*
X0115191Y0186060D01*
X0115191Y0188327D01*
X0114324Y0190422D01*
X0112720Y0192026D01*
X0110625Y0192894D01*
X0108358Y0192894D01*
X0106263Y0192026D01*
X0104659Y0190422D01*
X0104491Y0190017D01*
X0104324Y0190422D01*
X0102720Y0192026D01*
X0100625Y0192894D01*
X0098358Y0192894D01*
X0096263Y0192026D01*
X0094659Y0190422D01*
X0094491Y0190017D01*
X0094324Y0190422D01*
X0092720Y0192026D01*
X0090625Y0192894D01*
X0088358Y0192894D01*
X0086263Y0192026D01*
X0084659Y0190422D01*
X0084372Y0189729D01*
X0084195Y0190076D01*
X0083687Y0190777D01*
X0083074Y0191389D01*
X0082374Y0191898D01*
X0081603Y0192291D01*
X0080779Y0192558D01*
X0079924Y0192694D01*
X0079691Y0192694D01*
X0079691Y0187394D01*
X0079291Y0187394D01*
X0079291Y0192694D01*
X0079059Y0192694D01*
X0078204Y0192558D01*
X0077380Y0192291D01*
X0076609Y0191898D01*
X0075908Y0191389D01*
X0075296Y0190777D01*
X0074787Y0190076D01*
X0074611Y0189729D01*
X0074324Y0190422D01*
X0072720Y0192026D01*
X0070625Y0192894D01*
X0068358Y0192894D01*
X0066263Y0192026D01*
X0064659Y0190422D01*
X0064491Y0190017D01*
X0064324Y0190422D01*
X0062720Y0192026D01*
X0060625Y0192894D01*
X0058358Y0192894D01*
X0056263Y0192026D01*
X0054659Y0190422D01*
X0053791Y0188327D01*
X0053791Y0186060D01*
X0054659Y0183965D01*
X0056263Y0182361D01*
X0058358Y0181494D01*
X0060625Y0181494D01*
X0062720Y0182361D01*
X0064324Y0183965D01*
X0064491Y0184370D01*
X0064659Y0183965D01*
X0066263Y0182361D01*
X0068358Y0181494D01*
X0070625Y0181494D01*
X0072720Y0182361D01*
X0074324Y0183965D01*
X0074611Y0184658D01*
X0074787Y0184311D01*
X0075296Y0183611D01*
X0075908Y0182999D01*
X0076609Y0182490D01*
X0077380Y0182097D01*
X0078204Y0181829D01*
X0079059Y0181694D01*
X0079291Y0181694D01*
X0079291Y0186994D01*
X0079691Y0186994D01*
X0079691Y0181694D01*
X0079924Y0181694D01*
X0080779Y0181829D01*
X0081603Y0182097D01*
X0082374Y0182490D01*
X0083074Y0182999D01*
X0083687Y0183611D01*
X0084195Y0184311D01*
X0084372Y0184658D01*
X0084659Y0183965D01*
X0086263Y0182361D01*
X0088358Y0181494D01*
X0090625Y0181494D01*
X0092720Y0182361D01*
X0094324Y0183965D01*
X0094491Y0184370D01*
X0094659Y0183965D01*
X0096263Y0182361D01*
X0096691Y0182184D01*
X0096691Y0167523D01*
X0096644Y0167140D01*
X0096691Y0166971D01*
X0096691Y0166794D01*
X0096839Y0166438D01*
X0096942Y0166067D01*
X0097050Y0165928D01*
X0097118Y0165765D01*
X0097390Y0165493D01*
X0097627Y0165189D01*
X0097781Y0165102D01*
X0097905Y0164977D01*
X0098261Y0164830D01*
X0119216Y0152966D01*
X0119504Y0152270D01*
X0119674Y0152100D01*
X0116062Y0152100D01*
X0115823Y0152339D01*
X0114506Y0152884D01*
X0113080Y0152884D01*
X0111762Y0152339D01*
X0110754Y0151330D01*
X0110208Y0150013D01*
X0110208Y0148587D01*
X0110385Y0148161D01*
X0095343Y0165352D01*
X0095343Y0172031D01*
X0095581Y0172270D01*
X0096127Y0173587D01*
X0096127Y0175013D01*
X0095581Y0176330D01*
X0094573Y0177339D01*
X0093256Y0177884D01*
X0091830Y0177884D01*
X0090512Y0177339D01*
X0089504Y0176330D01*
X0088958Y0175013D01*
X0088958Y0173587D01*
X0089504Y0172270D01*
X0089743Y0172031D01*
X0089743Y0166060D01*
X0081127Y0174676D01*
X0081127Y0175013D01*
X0080581Y0176330D01*
X0079573Y0177339D01*
X0078256Y0177884D01*
X0076830Y0177884D01*
X0075512Y0177339D01*
X0074504Y0176330D01*
X0073958Y0175013D01*
X0073958Y0173587D01*
X0074504Y0172270D01*
X0075512Y0171261D01*
X0076830Y0170716D01*
X0077167Y0170716D01*
X0089830Y0158053D01*
X0089864Y0157694D01*
X0088395Y0156225D01*
X0088395Y0152414D01*
X0091090Y0149720D01*
X0094901Y0149720D01*
X0097595Y0152414D01*
X0097595Y0154273D01*
X0107632Y0142803D01*
X0107669Y0142714D01*
X0107997Y0142386D01*
X0108302Y0142037D01*
X0108388Y0141994D01*
X0108457Y0141926D01*
X0108885Y0141749D01*
X0109301Y0141543D01*
X0109397Y0141537D01*
X0109486Y0141500D01*
X0109949Y0141500D01*
X0110412Y0141469D01*
X0110503Y0141500D01*
X0125212Y0141500D01*
X0128936Y0141478D01*
X0130073Y0140341D01*
X0131764Y0139641D01*
X0138794Y0139641D01*
X0140485Y0140341D01*
X0141779Y0141635D01*
X0142243Y0142756D01*
X0142243Y0135726D01*
X0141779Y0136847D01*
X0140485Y0138141D01*
X0138794Y0138841D01*
X0131764Y0138841D01*
X0130073Y0138141D01*
X0128779Y0136847D01*
X0128079Y0135156D01*
X0128079Y0133326D01*
X0128779Y0131635D01*
X0130073Y0130341D01*
X0131764Y0129641D01*
X0138794Y0129641D01*
X0140485Y0130341D01*
X0141779Y0131635D01*
X0142243Y0132756D01*
X0142243Y0125726D01*
X0141779Y0126847D01*
X0140485Y0128141D01*
X0138794Y0128841D01*
X0131764Y0128841D01*
X0130073Y0128141D01*
X0129033Y0127100D01*
X0100736Y0127100D01*
X0099707Y0126674D01*
X0098919Y0125886D01*
X0093278Y0120245D01*
X0093627Y0121087D01*
X0093627Y0122513D01*
X0093081Y0123830D01*
X0092073Y0124839D01*
X0090756Y0125384D01*
X0089330Y0125384D01*
X0088012Y0124839D01*
X0087774Y0124600D01*
X0067312Y0124600D01*
X0067073Y0124839D01*
X0065756Y0125384D01*
X0064330Y0125384D01*
X0063012Y0124839D01*
X0062004Y0123830D01*
X0061458Y0122513D01*
X0061458Y0121087D01*
X0062004Y0119770D01*
X0062174Y0119600D01*
X0020052Y0119600D01*
X0019875Y0120029D01*
X0018271Y0121632D01*
X0017866Y0121800D01*
X0018271Y0121968D01*
X0019875Y0123571D01*
X0020743Y0125666D01*
X0020743Y0127934D01*
X0019875Y0130029D01*
X0018804Y0131100D01*
X0019571Y0131100D01*
X0020743Y0132272D01*
X0020743Y0141328D01*
X0019571Y0142500D01*
X0012043Y0142500D01*
X0012043Y0184313D01*
X0012841Y0183514D01*
X0015892Y0182251D01*
X0019193Y0182251D01*
X0022244Y0183514D01*
X0024578Y0185849D01*
X0025842Y0188899D01*
X0025842Y0192201D01*
X0024578Y0195251D01*
X0023179Y0196650D01*
X0193156Y0196650D01*
X0191757Y0195251D01*
X0190493Y0192201D01*
X0190493Y0188899D01*
X0191757Y0185849D01*
X0194091Y0183514D01*
X0197142Y0182251D01*
X0200443Y0182251D01*
X0203494Y0183514D01*
X0204893Y0184914D01*
X0204893Y0142500D01*
X0198014Y0142500D01*
X0196843Y0141328D01*
X0196843Y0132272D01*
X0198014Y0131100D01*
X0198782Y0131100D01*
X0197710Y0130029D01*
X0196843Y0127934D01*
X0196843Y0125666D01*
X0197710Y0123571D01*
X0199314Y0121968D01*
X0199719Y0121800D01*
X0199314Y0121632D01*
X0197710Y0120029D01*
X0196843Y0117934D01*
X0196843Y0115666D01*
X0197710Y0113571D01*
X0199314Y0111968D01*
X0199719Y0111800D01*
X0199314Y0111632D01*
X0197710Y0110029D01*
X0196843Y0107934D01*
X0196843Y0105666D01*
X0197710Y0103571D01*
X0199314Y0101968D01*
X0199719Y0101800D01*
X0199314Y0101632D01*
X0197710Y0100029D01*
X0196843Y0097934D01*
X0196843Y0095666D01*
X0197710Y0093571D01*
X0199314Y0091968D01*
X0199719Y0091800D01*
X0199314Y0091632D01*
X0197710Y0090029D01*
X0196843Y0087934D01*
X0196843Y0085666D01*
X0197710Y0083571D01*
X0199314Y0081968D01*
X0199719Y0081800D01*
X0199314Y0081632D01*
X0197710Y0080029D01*
X0196843Y0077934D01*
X0196843Y0075666D01*
X0197710Y0073571D01*
X0199314Y0071968D01*
X0200007Y0071681D01*
X0199660Y0071504D01*
X0198960Y0070995D01*
X0198347Y0070383D01*
X0197839Y0069683D01*
X0197446Y0068911D01*
X0197178Y0068088D01*
X0197043Y0067233D01*
X0197043Y0067000D01*
X0202343Y0067000D01*
X0202343Y0066600D01*
X0202743Y0066600D01*
X0202743Y0061300D01*
X0202975Y0061300D01*
X0203831Y0061435D01*
X0204654Y0061703D01*
X0204893Y0061825D01*
X0204893Y0014936D01*
X0203494Y0016336D01*
X0200443Y0017599D01*
X0197142Y0017599D01*
X0194091Y0016336D01*
X0191757Y0014001D01*
X0190493Y0010951D01*
X0190493Y0007649D01*
X0191757Y0004599D01*
X0192556Y0003800D01*
X0023779Y0003800D01*
X0024578Y0004599D01*
X0025842Y0007649D01*
X0025842Y0010951D01*
X0024578Y0014001D01*
X0022244Y0016336D01*
X0019193Y0017599D01*
X0015892Y0017599D01*
X0012841Y0016336D01*
X0012043Y0015537D01*
X0012043Y0062181D01*
X0012160Y0062096D01*
X0012931Y0061703D01*
X0013755Y0061435D01*
X0014610Y0061300D01*
X0014843Y0061300D01*
X0014843Y0066600D01*
X0015243Y0066600D01*
X0015243Y0067000D01*
X0020543Y0067000D01*
X0020543Y0067233D01*
X0020407Y0068088D01*
X0020140Y0068911D01*
X0019747Y0069683D01*
X0019238Y0070383D01*
X0018626Y0070995D01*
X0017925Y0071504D01*
X0017578Y0071681D01*
X0018271Y0071968D01*
X0019875Y0073571D01*
X0020743Y0075666D01*
X0020743Y0077934D01*
X0019875Y0080029D01*
X0018271Y0081632D01*
X0017866Y0081800D01*
X0018271Y0081968D01*
X0019875Y0083571D01*
X0020052Y0084000D01*
X0048883Y0084000D01*
X0058919Y0073964D01*
X0059707Y0073176D01*
X0060736Y0072750D01*
X0110133Y0072750D01*
X0120169Y0062714D01*
X0120957Y0061926D01*
X0121986Y0061500D01*
X0128914Y0061500D01*
X0130073Y0060341D01*
X0131764Y0059641D01*
X0138794Y0059641D01*
X0140485Y0060341D01*
X0141779Y0061635D01*
X0142243Y0062756D01*
X0142243Y0054816D01*
X0142170Y0055271D01*
X0141956Y0055930D01*
X0141642Y0056547D01*
X0141235Y0057107D01*
X0140745Y0057597D01*
X0140185Y0058004D01*
X0139568Y0058319D01*
X0138909Y0058533D01*
X0138225Y0058641D01*
X0135279Y0058641D01*
X0135279Y0054241D01*
X0135279Y0054241D01*
X0135279Y0049841D01*
X0138225Y0049841D01*
X0138909Y0049949D01*
X0139568Y0050163D01*
X0140185Y0050478D01*
X0140745Y0050885D01*
X0141235Y0051375D01*
X0141642Y0051935D01*
X0141956Y0052552D01*
X0142170Y0053211D01*
X0142243Y0053666D01*
X0142243Y0045726D01*
X0141779Y0046847D01*
X0140485Y0048141D01*
X0138794Y0048841D01*
X0131764Y0048841D01*
X0130073Y0048141D01*
X0129033Y0047100D01*
X0127734Y0047100D01*
X0116257Y0063167D01*
X0116166Y0063386D01*
X0115936Y0063616D01*
X0115747Y0063881D01*
X0115546Y0064006D01*
X0115379Y0064174D01*
X0115078Y0064298D01*
X0114802Y0064470D01*
X0114569Y0064509D01*
X0114350Y0064600D01*
X0114024Y0064600D01*
X0113704Y0064653D01*
X0113473Y0064600D01*
X0058562Y0064600D01*
X0058323Y0064839D01*
X0057006Y0065384D01*
X0055580Y0065384D01*
X0054262Y0064839D01*
X0053254Y0063830D01*
X0052708Y0062513D01*
X0052708Y0061087D01*
X0053254Y0059770D01*
X0054262Y0058761D01*
X0055580Y0058216D01*
X0057006Y0058216D01*
X0058323Y0058761D01*
X0058562Y0059000D01*
X0112352Y0059000D01*
X0123828Y0042933D01*
X0123919Y0042714D01*
X0124149Y0042484D01*
X0124338Y0042219D01*
X0124539Y0042094D01*
X0124707Y0041926D01*
X0125007Y0041802D01*
X0125283Y0041630D01*
X0125517Y0041591D01*
X0125736Y0041500D01*
X0126061Y0041500D01*
X0126382Y0041447D01*
X0126613Y0041500D01*
X0128914Y0041500D01*
X0130073Y0040341D01*
X0131764Y0039641D01*
X0138794Y0039641D01*
X0139016Y0039733D01*
X0137012Y0037729D01*
X0136474Y0037729D01*
X0133779Y0035034D01*
X0133779Y0031223D01*
X0134153Y0030850D01*
X0124952Y0030850D01*
X0121629Y0034174D01*
X0120600Y0034600D01*
X0071202Y0034600D01*
X0064086Y0041716D01*
X0063912Y0042136D01*
X0063125Y0042924D01*
X0062096Y0043350D01*
X0053791Y0043350D01*
X0053441Y0043700D01*
X0053788Y0044046D01*
X0078290Y0044026D01*
X0078084Y0043819D01*
X0078084Y0041997D01*
X0082483Y0041997D01*
X0082483Y0041997D01*
X0078084Y0041997D01*
X0078084Y0040174D01*
X0080661Y0037597D01*
X0082483Y0037597D01*
X0082483Y0041997D01*
X0082484Y0041997D01*
X0086884Y0041997D01*
X0086884Y0043819D01*
X0086684Y0044019D01*
X0107772Y0044002D01*
X0108012Y0043761D01*
X0109330Y0043216D01*
X0110756Y0043216D01*
X0112073Y0043761D01*
X0113081Y0044770D01*
X0113627Y0046087D01*
X0113627Y0047513D01*
X0113081Y0048830D01*
X0112073Y0049839D01*
X0110756Y0050384D01*
X0109330Y0050384D01*
X0108012Y0049839D01*
X0107776Y0049602D01*
X0086611Y0049619D01*
X0087084Y0050091D01*
X0087084Y0053902D01*
X0084389Y0056597D01*
X0080578Y0056597D01*
X0077884Y0053902D01*
X0077884Y0050091D01*
X0078349Y0049626D01*
X0053794Y0049646D01*
X0052713Y0050728D01*
X0051031Y0051424D01*
X0049211Y0051424D01*
X0047530Y0050728D01*
X0046243Y0049441D01*
X0045760Y0048274D01*
X0044487Y0048274D01*
X0042806Y0047578D01*
X0041727Y0046500D01*
X0041385Y0046500D01*
X0041365Y0046491D01*
X0041344Y0046491D01*
X0040851Y0046278D01*
X0040356Y0046073D01*
X0040341Y0046058D01*
X0036776Y0044519D01*
X0036595Y0044493D01*
X0036269Y0044300D01*
X0035921Y0044150D01*
X0035794Y0044019D01*
X0035637Y0043926D01*
X0035409Y0043622D01*
X0035146Y0043351D01*
X0035078Y0043181D01*
X0034968Y0043034D01*
X0034874Y0042667D01*
X0034735Y0042315D01*
X0034737Y0042132D01*
X0034692Y0041955D01*
X0034746Y0041580D01*
X0034751Y0041201D01*
X0034824Y0041034D01*
X0036302Y0030683D01*
X0034353Y0032632D01*
X0031556Y0033790D01*
X0028529Y0033790D01*
X0025732Y0032632D01*
X0023591Y0030491D01*
X0022432Y0027694D01*
X0022432Y0024666D01*
X0023591Y0021869D01*
X0025732Y0019728D01*
X0028529Y0018570D01*
X0031556Y0018570D01*
X0034353Y0019728D01*
X0036494Y0021869D01*
X0037288Y0023785D01*
X0039743Y0006601D01*
X0039743Y0006243D01*
X0039821Y0006055D01*
X0039850Y0005853D01*
X0040032Y0005545D01*
X0040169Y0005214D01*
X0040313Y0005070D01*
X0040417Y0004894D01*
X0040703Y0004679D01*
X0040957Y0004426D01*
X0041145Y0004348D01*
X0041308Y0004226D01*
X0041655Y0004137D01*
X0041986Y0004000D01*
X0042190Y0004000D01*
X0042387Y0003949D01*
X0042742Y0004000D01*
X0186195Y0004000D01*
X0186653Y0003968D01*
X0186749Y0004000D01*
X0186850Y0004000D01*
X0187274Y0004176D01*
X0187710Y0004322D01*
X0187786Y0004388D01*
X0187879Y0004426D01*
X0188204Y0004751D01*
X0188550Y0005053D01*
X0188595Y0005143D01*
X0188666Y0005214D01*
X0188842Y0005638D01*
X0189047Y0006050D01*
X0189054Y0006150D01*
X0189093Y0006243D01*
X0189093Y0006703D01*
X0196554Y0113653D01*
X0196594Y0113749D01*
X0196593Y0114205D01*
X0196625Y0114661D01*
X0196592Y0114759D01*
X0196591Y0114863D01*
X0196416Y0115284D01*
X0196271Y0115717D01*
X0196203Y0115795D01*
X0196163Y0115891D01*
X0195840Y0116213D01*
X0195540Y0116558D01*
X0195447Y0116604D01*
X0195374Y0116677D01*
X0194952Y0116851D01*
X0194543Y0117054D01*
X0194440Y0117062D01*
X0194344Y0117101D01*
X0193887Y0117100D01*
X0193432Y0117132D01*
X0193334Y0117099D01*
X0171571Y0117054D01*
X0170485Y0118141D01*
X0168794Y0118841D01*
X0161764Y0118841D01*
X0160073Y0118141D01*
X0158779Y0116847D01*
X0158079Y0115156D01*
X0158079Y0113326D01*
X0158779Y0111635D01*
X0160073Y0110341D01*
X0161764Y0109641D01*
X0168794Y0109641D01*
X0170485Y0110341D01*
X0171597Y0111454D01*
X0190790Y0111494D01*
X0183681Y0009600D01*
X0177911Y0009600D01*
X0178081Y0009770D01*
X0178627Y0011087D01*
X0178627Y0012513D01*
X0178081Y0013830D01*
X0177073Y0014839D01*
X0175756Y0015384D01*
X0174330Y0015384D01*
X0173012Y0014839D01*
X0172774Y0014600D01*
X0140066Y0014600D01*
X0140606Y0015902D01*
X0140606Y0017481D01*
X0140001Y0018940D01*
X0138885Y0020056D01*
X0137426Y0020660D01*
X0135848Y0020660D01*
X0134389Y0020056D01*
X0133273Y0018940D01*
X0133028Y0018349D01*
X0132641Y0019283D01*
X0131355Y0020570D01*
X0129673Y0021267D01*
X0127853Y0021267D01*
X0126172Y0020570D01*
X0124885Y0019283D01*
X0124826Y0019141D01*
X0124767Y0019283D01*
X0123480Y0020570D01*
X0121799Y0021267D01*
X0119979Y0021267D01*
X0118298Y0020570D01*
X0117011Y0019283D01*
X0116952Y0019141D01*
X0116893Y0019283D01*
X0115606Y0020570D01*
X0113925Y0021267D01*
X0112105Y0021267D01*
X0110424Y0020570D01*
X0109137Y0019283D01*
X0108750Y0018349D01*
X0108505Y0018940D01*
X0107389Y0020056D01*
X0105930Y0020660D01*
X0104352Y0020660D01*
X0102893Y0020056D01*
X0101777Y0018940D01*
X0101173Y0017481D01*
X0101173Y0015902D01*
X0101712Y0014600D01*
X0097312Y0014600D01*
X0097073Y0014839D01*
X0095756Y0015384D01*
X0094330Y0015384D01*
X0093527Y0015052D01*
X0093527Y0016574D01*
X0093527Y0018396D01*
X0090950Y0020974D01*
X0089127Y0020974D01*
X0087305Y0020974D01*
X0084727Y0018396D01*
X0084727Y0016574D01*
X0089127Y0016574D01*
X0089127Y0020974D01*
X0089127Y0016574D01*
X0089127Y0016574D01*
X0089127Y0016574D01*
X0084727Y0016574D01*
X0084727Y0014751D01*
X0087305Y0012174D01*
X0089127Y0012174D01*
X0089127Y0016573D01*
X0089127Y0016573D01*
X0089127Y0012174D01*
X0090950Y0012174D01*
X0091578Y0012802D01*
X0091458Y0011391D02*
X0065856Y0011391D01*
X0065684Y0011219D02*
X0068262Y0013796D01*
X0068262Y0015619D01*
X0068262Y0017441D01*
X0065684Y0020019D01*
X0063862Y0020019D01*
X0063862Y0015619D01*
X0068262Y0015619D01*
X0063862Y0015619D01*
X0063862Y0015619D01*
X0063861Y0015619D01*
X0063861Y0015619D01*
X0059462Y0015619D01*
X0059462Y0017441D01*
X0062039Y0020019D01*
X0063861Y0020019D01*
X0063861Y0015619D01*
X0059462Y0015619D01*
X0059462Y0013796D01*
X0062039Y0011219D01*
X0063861Y0011219D01*
X0063861Y0015619D01*
X0063862Y0015619D01*
X0063862Y0011219D01*
X0065684Y0011219D01*
X0063862Y0011391D02*
X0063861Y0011391D01*
X0063861Y0012990D02*
X0063862Y0012990D01*
X0063861Y0014588D02*
X0063862Y0014588D01*
X0063861Y0016187D02*
X0063862Y0016187D01*
X0063861Y0017785D02*
X0063862Y0017785D01*
X0063861Y0019384D02*
X0063862Y0019384D01*
X0066319Y0019384D02*
X0085715Y0019384D01*
X0084727Y0017785D02*
X0067918Y0017785D01*
X0068262Y0016187D02*
X0084727Y0016187D01*
X0084890Y0014588D02*
X0068262Y0014588D01*
X0067455Y0012990D02*
X0086489Y0012990D01*
X0089127Y0012990D02*
X0089127Y0012990D01*
X0089127Y0014588D02*
X0089127Y0014588D01*
X0089127Y0016187D02*
X0089127Y0016187D01*
X0089127Y0016574D02*
X0089127Y0016574D01*
X0093527Y0016574D01*
X0089127Y0016574D01*
X0089127Y0017785D02*
X0089127Y0017785D01*
X0089127Y0019384D02*
X0089127Y0019384D01*
X0092540Y0019384D02*
X0102221Y0019384D01*
X0101298Y0017785D02*
X0093527Y0017785D01*
X0093527Y0016187D02*
X0101173Y0016187D01*
X0108061Y0019384D02*
X0109237Y0019384D01*
X0111419Y0020982D02*
X0043345Y0020982D01*
X0043573Y0019384D02*
X0061404Y0019384D01*
X0061956Y0021019D02*
X0065767Y0021019D01*
X0068462Y0023714D01*
X0068462Y0027524D01*
X0065767Y0030219D01*
X0061956Y0030219D01*
X0059262Y0027524D01*
X0059262Y0023714D01*
X0061956Y0021019D01*
X0060394Y0022581D02*
X0043117Y0022581D01*
X0042888Y0024179D02*
X0059262Y0024179D01*
X0059262Y0025778D02*
X0042660Y0025778D01*
X0042432Y0027376D02*
X0059262Y0027376D01*
X0060712Y0028975D02*
X0042203Y0028975D01*
X0041975Y0030573D02*
X0047740Y0030573D01*
X0046271Y0032172D02*
X0041747Y0032172D01*
X0041518Y0033770D02*
X0042557Y0033770D01*
X0036090Y0032172D02*
X0034813Y0032172D01*
X0035861Y0033770D02*
X0031604Y0033770D01*
X0028481Y0033770D02*
X0012043Y0033770D01*
X0012043Y0032172D02*
X0025272Y0032172D01*
X0023673Y0030573D02*
X0012043Y0030573D01*
X0012043Y0028975D02*
X0022963Y0028975D01*
X0022432Y0027376D02*
X0012043Y0027376D01*
X0012043Y0025778D02*
X0022432Y0025778D01*
X0022634Y0024179D02*
X0012043Y0024179D01*
X0012043Y0022581D02*
X0023296Y0022581D01*
X0024478Y0020982D02*
X0012043Y0020982D01*
X0012043Y0019384D02*
X0026564Y0019384D01*
X0022393Y0016187D02*
X0038373Y0016187D01*
X0038145Y0017785D02*
X0012043Y0017785D01*
X0012043Y0016187D02*
X0012692Y0016187D01*
X0023991Y0014588D02*
X0038602Y0014588D01*
X0038830Y0012990D02*
X0024997Y0012990D01*
X0025659Y0011391D02*
X0039058Y0011391D01*
X0039287Y0009793D02*
X0025842Y0009793D01*
X0025842Y0008194D02*
X0039515Y0008194D01*
X0039743Y0006596D02*
X0025405Y0006596D01*
X0024743Y0004997D02*
X0040356Y0004997D01*
X0042543Y0006800D02*
X0186293Y0006800D01*
X0193793Y0114300D01*
X0165279Y0114241D01*
X0169638Y0118491D02*
X0197074Y0118491D01*
X0196843Y0116893D02*
X0194867Y0116893D01*
X0196412Y0115294D02*
X0196997Y0115294D01*
X0196572Y0113696D02*
X0197659Y0113696D01*
X0196446Y0112097D02*
X0199184Y0112097D01*
X0198180Y0110499D02*
X0196334Y0110499D01*
X0196223Y0108900D02*
X0197243Y0108900D01*
X0196843Y0107302D02*
X0196111Y0107302D01*
X0196000Y0105703D02*
X0196843Y0105703D01*
X0197489Y0104105D02*
X0195888Y0104105D01*
X0195777Y0102506D02*
X0198775Y0102506D01*
X0198589Y0100908D02*
X0195665Y0100908D01*
X0195554Y0099309D02*
X0197412Y0099309D01*
X0196843Y0097711D02*
X0195442Y0097711D01*
X0195330Y0096112D02*
X0196843Y0096112D01*
X0197320Y0094514D02*
X0195219Y0094514D01*
X0195107Y0092915D02*
X0198366Y0092915D01*
X0198998Y0091317D02*
X0194996Y0091317D01*
X0194884Y0089718D02*
X0197582Y0089718D01*
X0196920Y0088120D02*
X0194773Y0088120D01*
X0194661Y0086521D02*
X0196843Y0086521D01*
X0197151Y0084923D02*
X0194550Y0084923D01*
X0194438Y0083324D02*
X0197958Y0083324D01*
X0199539Y0081726D02*
X0194327Y0081726D01*
X0194215Y0080127D02*
X0197809Y0080127D01*
X0197089Y0078529D02*
X0194104Y0078529D01*
X0193992Y0076930D02*
X0196843Y0076930D01*
X0196981Y0075332D02*
X0193881Y0075332D01*
X0193769Y0073733D02*
X0197643Y0073733D01*
X0199147Y0072134D02*
X0193658Y0072134D01*
X0193546Y0070536D02*
X0198500Y0070536D01*
X0197459Y0068937D02*
X0193435Y0068937D01*
X0193323Y0067339D02*
X0197059Y0067339D01*
X0197043Y0066600D02*
X0197043Y0066367D01*
X0197178Y0065512D01*
X0197446Y0064689D01*
X0197839Y0063917D01*
X0198347Y0063217D01*
X0198960Y0062605D01*
X0199660Y0062096D01*
X0200431Y0061703D01*
X0201255Y0061435D01*
X0202110Y0061300D01*
X0202343Y0061300D01*
X0202343Y0066600D01*
X0197043Y0066600D01*
X0197142Y0065740D02*
X0193212Y0065740D01*
X0193100Y0064142D02*
X0197724Y0064142D01*
X0199044Y0062543D02*
X0192988Y0062543D01*
X0192877Y0060945D02*
X0204893Y0060945D01*
X0204893Y0059346D02*
X0192765Y0059346D01*
X0192654Y0057748D02*
X0204893Y0057748D01*
X0204893Y0056149D02*
X0192542Y0056149D01*
X0192431Y0054551D02*
X0204893Y0054551D01*
X0204893Y0052952D02*
X0192319Y0052952D01*
X0192208Y0051354D02*
X0204893Y0051354D01*
X0204893Y0049755D02*
X0192096Y0049755D01*
X0191985Y0048157D02*
X0204893Y0048157D01*
X0204893Y0046558D02*
X0191873Y0046558D01*
X0191762Y0044960D02*
X0204893Y0044960D01*
X0204893Y0043361D02*
X0191650Y0043361D01*
X0191539Y0041763D02*
X0204893Y0041763D01*
X0204893Y0040164D02*
X0191427Y0040164D01*
X0191316Y0038566D02*
X0204893Y0038566D01*
X0204893Y0036967D02*
X0191204Y0036967D01*
X0191093Y0035369D02*
X0204893Y0035369D01*
X0204893Y0033770D02*
X0190981Y0033770D01*
X0190870Y0032172D02*
X0204893Y0032172D01*
X0204893Y0030573D02*
X0190758Y0030573D01*
X0190646Y0028975D02*
X0204893Y0028975D01*
X0204893Y0027376D02*
X0190535Y0027376D01*
X0190423Y0025778D02*
X0204893Y0025778D01*
X0204893Y0024179D02*
X0190312Y0024179D01*
X0190200Y0022581D02*
X0204893Y0022581D01*
X0204893Y0020982D02*
X0190089Y0020982D01*
X0189977Y0019384D02*
X0204893Y0019384D01*
X0204893Y0017785D02*
X0189866Y0017785D01*
X0189754Y0016187D02*
X0193942Y0016187D01*
X0192344Y0014588D02*
X0189643Y0014588D01*
X0189531Y0012990D02*
X0191338Y0012990D01*
X0190676Y0011391D02*
X0189420Y0011391D01*
X0189308Y0009793D02*
X0190493Y0009793D01*
X0190493Y0008194D02*
X0189197Y0008194D01*
X0189093Y0006596D02*
X0190930Y0006596D01*
X0191592Y0004997D02*
X0188486Y0004997D01*
X0183695Y0009793D02*
X0178091Y0009793D01*
X0178627Y0011391D02*
X0183806Y0011391D01*
X0183918Y0012990D02*
X0178429Y0012990D01*
X0177323Y0014588D02*
X0184029Y0014588D01*
X0184141Y0016187D02*
X0140606Y0016187D01*
X0140480Y0017785D02*
X0184252Y0017785D01*
X0184364Y0019384D02*
X0139558Y0019384D01*
X0133717Y0019384D02*
X0132541Y0019384D01*
X0130360Y0020982D02*
X0184475Y0020982D01*
X0184587Y0022581D02*
X0091640Y0022581D01*
X0093238Y0024179D02*
X0184698Y0024179D01*
X0184810Y0025778D02*
X0177980Y0025778D01*
X0179579Y0027376D02*
X0184921Y0027376D01*
X0185033Y0028975D02*
X0181171Y0028975D01*
X0181593Y0030573D02*
X0185144Y0030573D01*
X0185256Y0032172D02*
X0181593Y0032172D01*
X0181593Y0033770D02*
X0185367Y0033770D01*
X0185479Y0035369D02*
X0181593Y0035369D01*
X0181593Y0036967D02*
X0185591Y0036967D01*
X0185702Y0038566D02*
X0181593Y0038566D01*
X0181593Y0040164D02*
X0185814Y0040164D01*
X0185925Y0041763D02*
X0181593Y0041763D01*
X0181593Y0043361D02*
X0186037Y0043361D01*
X0186148Y0044960D02*
X0181593Y0044960D01*
X0181593Y0046558D02*
X0186260Y0046558D01*
X0186371Y0048157D02*
X0181593Y0048157D01*
X0181593Y0049755D02*
X0186483Y0049755D01*
X0186594Y0051354D02*
X0181593Y0051354D01*
X0181593Y0052952D02*
X0186706Y0052952D01*
X0186817Y0054551D02*
X0181593Y0054551D01*
X0181593Y0056149D02*
X0186929Y0056149D01*
X0187040Y0057748D02*
X0181593Y0057748D01*
X0181593Y0059346D02*
X0187152Y0059346D01*
X0187263Y0060945D02*
X0181593Y0060945D01*
X0181593Y0062543D02*
X0187375Y0062543D01*
X0187486Y0064142D02*
X0181593Y0064142D01*
X0181593Y0065740D02*
X0187598Y0065740D01*
X0187709Y0067339D02*
X0181593Y0067339D01*
X0181593Y0068937D02*
X0187821Y0068937D01*
X0187933Y0070536D02*
X0181593Y0070536D01*
X0181593Y0072134D02*
X0188044Y0072134D01*
X0188156Y0073733D02*
X0181593Y0073733D01*
X0181593Y0075332D02*
X0188267Y0075332D01*
X0188379Y0076930D02*
X0181593Y0076930D01*
X0181593Y0078529D02*
X0188490Y0078529D01*
X0188602Y0080127D02*
X0181593Y0080127D01*
X0181593Y0081726D02*
X0188713Y0081726D01*
X0188825Y0083324D02*
X0181593Y0083324D01*
X0181565Y0084923D02*
X0188936Y0084923D01*
X0189048Y0086521D02*
X0180531Y0086521D01*
X0178366Y0088120D02*
X0189159Y0088120D01*
X0189271Y0089718D02*
X0183836Y0089718D01*
X0185076Y0091317D02*
X0189382Y0091317D01*
X0189494Y0092915D02*
X0185076Y0092915D01*
X0185076Y0094514D02*
X0189605Y0094514D01*
X0189717Y0096112D02*
X0183732Y0096112D01*
X0183427Y0099309D02*
X0189940Y0099309D01*
X0189828Y0097711D02*
X0176593Y0097711D01*
X0176593Y0099309D02*
X0177524Y0099309D01*
X0177220Y0096112D02*
X0176593Y0096112D01*
X0173793Y0100550D02*
X0171293Y0104300D01*
X0165338Y0104300D01*
X0165279Y0104241D01*
X0159507Y0100908D02*
X0147843Y0100908D01*
X0147843Y0102506D02*
X0158418Y0102506D01*
X0158079Y0104105D02*
X0147843Y0104105D01*
X0147843Y0105703D02*
X0158306Y0105703D01*
X0159234Y0107302D02*
X0147843Y0107302D01*
X0147843Y0108900D02*
X0190609Y0108900D01*
X0190498Y0107302D02*
X0181780Y0107302D01*
X0179171Y0107302D02*
X0171323Y0107302D01*
X0173742Y0105703D02*
X0176811Y0105703D01*
X0176011Y0104105D02*
X0174788Y0104105D01*
X0175854Y0102506D02*
X0175876Y0102506D01*
X0173793Y0100550D02*
X0173793Y0088050D01*
X0178793Y0084300D01*
X0178793Y0030550D01*
X0176293Y0028050D01*
X0123793Y0028050D01*
X0120043Y0031800D01*
X0070043Y0031800D01*
X0061539Y0040304D01*
X0061539Y0040550D01*
X0050121Y0040550D01*
X0053780Y0043361D02*
X0078084Y0043361D01*
X0078084Y0041763D02*
X0064067Y0041763D01*
X0065638Y0040164D02*
X0078094Y0040164D01*
X0079692Y0038566D02*
X0067237Y0038566D01*
X0068835Y0036967D02*
X0135712Y0036967D01*
X0134114Y0035369D02*
X0070434Y0035369D01*
X0065711Y0032172D02*
X0053972Y0032172D01*
X0053863Y0031958D02*
X0054176Y0032571D01*
X0054388Y0033226D01*
X0054496Y0033906D01*
X0054496Y0034251D01*
X0050121Y0034251D01*
X0050121Y0034251D01*
X0050121Y0029876D01*
X0050466Y0029876D01*
X0051146Y0029984D01*
X0051801Y0030196D01*
X0052414Y0030509D01*
X0052971Y0030914D01*
X0053458Y0031401D01*
X0053863Y0031958D01*
X0054475Y0033770D02*
X0064113Y0033770D01*
X0062514Y0035369D02*
X0054358Y0035369D01*
X0053555Y0036967D02*
X0060916Y0036967D01*
X0067310Y0030573D02*
X0052502Y0030573D01*
X0050121Y0030573D02*
X0050121Y0030573D01*
X0050121Y0032172D02*
X0050121Y0032172D01*
X0050121Y0033770D02*
X0050121Y0033770D01*
X0045397Y0043700D02*
X0041942Y0043700D01*
X0037543Y0041800D01*
X0042543Y0006800D01*
X0044944Y0009793D02*
X0091995Y0009793D01*
X0086615Y0022581D02*
X0067329Y0022581D01*
X0068462Y0024179D02*
X0085016Y0024179D01*
X0084527Y0025778D02*
X0068462Y0025778D01*
X0068462Y0027376D02*
X0084527Y0027376D01*
X0085023Y0028975D02*
X0067011Y0028975D01*
X0059805Y0017785D02*
X0043802Y0017785D01*
X0044030Y0016187D02*
X0059462Y0016187D01*
X0059462Y0014588D02*
X0044258Y0014588D01*
X0044487Y0012990D02*
X0060268Y0012990D01*
X0061867Y0011391D02*
X0044715Y0011391D01*
X0037917Y0019384D02*
X0033521Y0019384D01*
X0035607Y0020982D02*
X0037688Y0020982D01*
X0037460Y0022581D02*
X0036789Y0022581D01*
X0035633Y0035369D02*
X0012043Y0035369D01*
X0012043Y0036967D02*
X0035405Y0036967D01*
X0035176Y0038566D02*
X0012043Y0038566D01*
X0012043Y0040164D02*
X0034948Y0040164D01*
X0034720Y0041763D02*
X0012043Y0041763D01*
X0012043Y0043361D02*
X0035156Y0043361D01*
X0037797Y0044960D02*
X0012043Y0044960D01*
X0012043Y0046558D02*
X0041786Y0046558D01*
X0044203Y0048157D02*
X0033601Y0048157D01*
X0034353Y0048468D02*
X0036494Y0050609D01*
X0037653Y0053406D01*
X0037653Y0056434D01*
X0036494Y0059231D01*
X0034353Y0061372D01*
X0031556Y0062530D01*
X0028529Y0062530D01*
X0025732Y0061372D01*
X0023591Y0059231D01*
X0022432Y0056434D01*
X0022432Y0053406D01*
X0023591Y0050609D01*
X0025732Y0048468D01*
X0028529Y0047310D01*
X0031556Y0047310D01*
X0034353Y0048468D01*
X0035640Y0049755D02*
X0046558Y0049755D01*
X0049042Y0051354D02*
X0036803Y0051354D01*
X0037465Y0052952D02*
X0077884Y0052952D01*
X0077884Y0051354D02*
X0051201Y0051354D01*
X0053685Y0049755D02*
X0078220Y0049755D01*
X0078532Y0054551D02*
X0037653Y0054551D01*
X0037653Y0056149D02*
X0080131Y0056149D01*
X0084836Y0056149D02*
X0114388Y0056149D01*
X0115530Y0054551D02*
X0086435Y0054551D01*
X0087084Y0052952D02*
X0116671Y0052952D01*
X0117813Y0051354D02*
X0087084Y0051354D01*
X0086747Y0049755D02*
X0107929Y0049755D01*
X0110043Y0046800D02*
X0050121Y0046849D01*
X0053677Y0059346D02*
X0036379Y0059346D01*
X0037109Y0057748D02*
X0113246Y0057748D01*
X0113793Y0061800D02*
X0126293Y0044300D01*
X0135220Y0044300D01*
X0135279Y0044241D01*
X0135279Y0049841D02*
X0132333Y0049841D01*
X0131648Y0049949D01*
X0130990Y0050163D01*
X0130373Y0050478D01*
X0129812Y0050885D01*
X0129323Y0051375D01*
X0128916Y0051935D01*
X0128601Y0052552D01*
X0128387Y0053211D01*
X0128279Y0053895D01*
X0128279Y0054241D01*
X0135279Y0054241D01*
X0135279Y0054241D01*
X0135279Y0058641D01*
X0132333Y0058641D01*
X0131648Y0058533D01*
X0130990Y0058319D01*
X0130373Y0058004D01*
X0129812Y0057597D01*
X0129323Y0057107D01*
X0128916Y0056547D01*
X0128601Y0055930D01*
X0128387Y0055271D01*
X0128279Y0054587D01*
X0128279Y0054241D01*
X0135279Y0054241D01*
X0135279Y0049841D01*
X0135279Y0051354D02*
X0135279Y0051354D01*
X0135279Y0052952D02*
X0135279Y0052952D01*
X0135279Y0054241D02*
X0135279Y0054241D01*
X0135279Y0054551D02*
X0135279Y0054551D01*
X0135279Y0056149D02*
X0135279Y0056149D01*
X0135279Y0057748D02*
X0135279Y0057748D01*
X0140538Y0057748D02*
X0142243Y0057748D01*
X0142243Y0059346D02*
X0118986Y0059346D01*
X0120128Y0057748D02*
X0130020Y0057748D01*
X0128713Y0056149D02*
X0121270Y0056149D01*
X0122411Y0054551D02*
X0128279Y0054551D01*
X0128471Y0052952D02*
X0123553Y0052952D01*
X0124695Y0051354D02*
X0129343Y0051354D01*
X0130112Y0048157D02*
X0126979Y0048157D01*
X0125837Y0049755D02*
X0142243Y0049755D01*
X0142243Y0048157D02*
X0140445Y0048157D01*
X0141898Y0046558D02*
X0142243Y0046558D01*
X0142243Y0051354D02*
X0141214Y0051354D01*
X0142087Y0052952D02*
X0142243Y0052952D01*
X0142243Y0056149D02*
X0141845Y0056149D01*
X0142243Y0060945D02*
X0141088Y0060945D01*
X0142155Y0062543D02*
X0142243Y0062543D01*
X0142237Y0065740D02*
X0142243Y0065740D01*
X0142243Y0067339D02*
X0141286Y0067339D01*
X0142243Y0068937D02*
X0121865Y0068937D01*
X0121238Y0070536D02*
X0120266Y0070536D01*
X0120292Y0072134D02*
X0118668Y0072134D01*
X0118409Y0073733D02*
X0117069Y0073733D01*
X0116385Y0075332D02*
X0115471Y0075332D01*
X0114360Y0076930D02*
X0113872Y0076930D01*
X0112336Y0078529D02*
X0091803Y0078529D01*
X0092386Y0080127D02*
X0110312Y0080127D01*
X0108287Y0081726D02*
X0092386Y0081726D01*
X0091818Y0083324D02*
X0106263Y0083324D01*
X0104238Y0084923D02*
X0090219Y0084923D01*
X0089891Y0086334D02*
X0092586Y0089028D01*
X0092586Y0092839D01*
X0089891Y0095534D01*
X0086080Y0095534D01*
X0083386Y0092839D01*
X0083386Y0089028D01*
X0086080Y0086334D01*
X0089891Y0086334D01*
X0090078Y0086521D02*
X0102214Y0086521D01*
X0100189Y0088120D02*
X0091677Y0088120D01*
X0092586Y0089718D02*
X0098165Y0089718D01*
X0096140Y0091317D02*
X0092586Y0091317D01*
X0092510Y0092915D02*
X0094116Y0092915D01*
X0092092Y0094514D02*
X0090911Y0094514D01*
X0090067Y0096112D02*
X0041149Y0096112D01*
X0039551Y0094514D02*
X0070818Y0094514D01*
X0072114Y0095809D02*
X0069419Y0093115D01*
X0069419Y0089815D01*
X0068424Y0090809D01*
X0064614Y0090809D01*
X0061919Y0088115D01*
X0061919Y0084304D01*
X0064614Y0081609D01*
X0068424Y0081609D01*
X0069619Y0082804D01*
X0069619Y0081209D01*
X0074019Y0081209D01*
X0074019Y0081209D01*
X0074019Y0081209D01*
X0078419Y0081209D01*
X0078419Y0083032D01*
X0075842Y0085609D01*
X0074019Y0085609D01*
X0072196Y0085609D01*
X0071119Y0084532D01*
X0071119Y0087604D01*
X0072114Y0086609D01*
X0075924Y0086609D01*
X0078619Y0089304D01*
X0078619Y0093115D01*
X0075924Y0095809D01*
X0072114Y0095809D01*
X0069419Y0092915D02*
X0019219Y0092915D01*
X0018587Y0091317D02*
X0069419Y0091317D01*
X0071119Y0086521D02*
X0085893Y0086521D01*
X0085752Y0084923D02*
X0076528Y0084923D01*
X0078127Y0083324D02*
X0084153Y0083324D01*
X0083586Y0081726D02*
X0078419Y0081726D01*
X0078419Y0080127D02*
X0083586Y0080127D01*
X0084168Y0078529D02*
X0077561Y0078529D01*
X0074019Y0081210D02*
X0074019Y0081210D01*
X0074019Y0085609D01*
X0074019Y0081210D01*
X0074019Y0081726D02*
X0074019Y0081726D01*
X0074019Y0083324D02*
X0074019Y0083324D01*
X0074019Y0084923D02*
X0074019Y0084923D01*
X0071510Y0084923D02*
X0071119Y0084923D01*
X0069619Y0081726D02*
X0068540Y0081726D01*
X0069619Y0080127D02*
X0060675Y0080127D01*
X0059077Y0081726D02*
X0064497Y0081726D01*
X0062899Y0083324D02*
X0057478Y0083324D01*
X0055880Y0084923D02*
X0061919Y0084923D01*
X0061919Y0086521D02*
X0054281Y0086521D01*
X0052683Y0088120D02*
X0061924Y0088120D01*
X0063522Y0089718D02*
X0020004Y0089718D01*
X0015043Y0086800D02*
X0050043Y0086800D01*
X0061293Y0075550D01*
X0111293Y0075550D01*
X0122543Y0064300D01*
X0135220Y0064300D01*
X0135279Y0064241D01*
X0129469Y0060945D02*
X0117844Y0060945D01*
X0116703Y0062543D02*
X0120339Y0062543D01*
X0118741Y0064142D02*
X0115410Y0064142D01*
X0117142Y0065740D02*
X0020443Y0065740D01*
X0020407Y0065512D02*
X0020543Y0066367D01*
X0020543Y0066600D01*
X0015243Y0066600D01*
X0015243Y0061300D01*
X0015475Y0061300D01*
X0016331Y0061435D01*
X0017154Y0061703D01*
X0017925Y0062096D01*
X0018626Y0062605D01*
X0019238Y0063217D01*
X0019747Y0063917D01*
X0020140Y0064689D01*
X0020407Y0065512D01*
X0019861Y0064142D02*
X0053566Y0064142D01*
X0052721Y0062543D02*
X0018541Y0062543D01*
X0015243Y0062543D02*
X0014843Y0062543D01*
X0014843Y0064142D02*
X0015243Y0064142D01*
X0015243Y0065740D02*
X0014843Y0065740D01*
X0012043Y0060945D02*
X0025305Y0060945D01*
X0023706Y0059346D02*
X0012043Y0059346D01*
X0012043Y0057748D02*
X0022977Y0057748D01*
X0022432Y0056149D02*
X0012043Y0056149D01*
X0012043Y0054551D02*
X0022432Y0054551D01*
X0022620Y0052952D02*
X0012043Y0052952D01*
X0012043Y0051354D02*
X0023283Y0051354D01*
X0024445Y0049755D02*
X0012043Y0049755D01*
X0012043Y0048157D02*
X0026484Y0048157D01*
X0034780Y0060945D02*
X0052767Y0060945D01*
X0056293Y0061800D02*
X0113793Y0061800D01*
X0115544Y0067339D02*
X0020526Y0067339D01*
X0020126Y0068937D02*
X0113945Y0068937D01*
X0112347Y0070536D02*
X0019085Y0070536D01*
X0018438Y0072134D02*
X0110748Y0072134D01*
X0119348Y0080127D02*
X0130590Y0080127D01*
X0131010Y0078529D02*
X0121373Y0078529D01*
X0123397Y0076930D02*
X0128863Y0076930D01*
X0128152Y0075332D02*
X0126580Y0075332D01*
X0127377Y0073733D02*
X0128079Y0073733D01*
X0128572Y0072134D02*
X0127293Y0072134D01*
X0126347Y0070536D02*
X0129878Y0070536D01*
X0129271Y0067339D02*
X0123463Y0067339D01*
X0123793Y0073050D02*
X0076263Y0110580D01*
X0051657Y0110580D01*
X0037877Y0096800D01*
X0015043Y0096800D01*
X0019628Y0083324D02*
X0049559Y0083324D01*
X0051157Y0081726D02*
X0018046Y0081726D01*
X0019777Y0080127D02*
X0052756Y0080127D01*
X0054354Y0078529D02*
X0020496Y0078529D01*
X0020743Y0076930D02*
X0055953Y0076930D01*
X0057551Y0075332D02*
X0020604Y0075332D01*
X0019942Y0073733D02*
X0059150Y0073733D01*
X0062274Y0078529D02*
X0070477Y0078529D01*
X0077435Y0088120D02*
X0084294Y0088120D01*
X0083386Y0089718D02*
X0078619Y0089718D01*
X0078619Y0091317D02*
X0083386Y0091317D01*
X0083461Y0092915D02*
X0078619Y0092915D01*
X0077220Y0094514D02*
X0085060Y0094514D01*
X0088043Y0097711D02*
X0042748Y0097711D01*
X0044346Y0099309D02*
X0086018Y0099309D01*
X0083994Y0100908D02*
X0045945Y0100908D01*
X0047543Y0102506D02*
X0081969Y0102506D01*
X0079945Y0104105D02*
X0049142Y0104105D01*
X0050740Y0105703D02*
X0077920Y0105703D01*
X0075896Y0107302D02*
X0054884Y0107302D01*
X0055362Y0113380D02*
X0054742Y0114000D01*
X0094350Y0114000D01*
X0095379Y0114426D01*
X0102452Y0121500D01*
X0128914Y0121500D01*
X0130073Y0120341D01*
X0131764Y0119641D01*
X0138794Y0119641D01*
X0140485Y0120341D01*
X0141779Y0121635D01*
X0142243Y0122756D01*
X0142243Y0115726D01*
X0141779Y0116847D01*
X0140485Y0118141D01*
X0138794Y0118841D01*
X0131764Y0118841D01*
X0130073Y0118141D01*
X0129033Y0117100D01*
X0114812Y0117100D01*
X0114573Y0117339D01*
X0113256Y0117884D01*
X0111830Y0117884D01*
X0110512Y0117339D01*
X0109504Y0116330D01*
X0108958Y0115013D01*
X0108958Y0113587D01*
X0109504Y0112270D01*
X0110512Y0111261D01*
X0111830Y0110716D01*
X0113256Y0110716D01*
X0114573Y0111261D01*
X0114812Y0111500D01*
X0116099Y0111500D01*
X0116038Y0111475D01*
X0114435Y0109871D01*
X0113567Y0107776D01*
X0113567Y0105509D01*
X0114435Y0103414D01*
X0116038Y0101810D01*
X0117302Y0101287D01*
X0116684Y0100838D01*
X0116072Y0100226D01*
X0115563Y0099525D01*
X0115170Y0098754D01*
X0114902Y0097930D01*
X0114767Y0097075D01*
X0114767Y0096843D01*
X0120067Y0096843D01*
X0120067Y0096442D01*
X0114767Y0096442D01*
X0114767Y0096210D01*
X0114902Y0095355D01*
X0115170Y0094531D01*
X0115563Y0093760D01*
X0116072Y0093060D01*
X0116684Y0092447D01*
X0117302Y0091998D01*
X0116038Y0091475D01*
X0114435Y0089871D01*
X0113567Y0087776D01*
X0113567Y0085509D01*
X0114070Y0084295D01*
X0093288Y0100704D01*
X0094586Y0100704D01*
X0097280Y0103399D01*
X0097280Y0107209D01*
X0094586Y0109904D01*
X0090775Y0109904D01*
X0088080Y0107209D01*
X0088080Y0104816D01*
X0078127Y0112675D01*
X0077849Y0112953D01*
X0077693Y0113018D01*
X0077561Y0113122D01*
X0077183Y0113229D01*
X0076820Y0113380D01*
X0076651Y0113380D01*
X0076489Y0113425D01*
X0076099Y0113380D01*
X0055362Y0113380D01*
X0055046Y0113696D02*
X0108958Y0113696D01*
X0109075Y0115294D02*
X0096247Y0115294D01*
X0097845Y0116893D02*
X0110067Y0116893D01*
X0112543Y0114300D02*
X0135220Y0114300D01*
X0135279Y0114241D01*
X0139638Y0118491D02*
X0142243Y0118491D01*
X0142243Y0116893D02*
X0141732Y0116893D01*
X0142243Y0120090D02*
X0139878Y0120090D01*
X0141801Y0121688D02*
X0142243Y0121688D01*
X0142243Y0126484D02*
X0141929Y0126484D01*
X0142243Y0128082D02*
X0140543Y0128082D01*
X0138890Y0129681D02*
X0142243Y0129681D01*
X0142243Y0131279D02*
X0141423Y0131279D01*
X0142098Y0136075D02*
X0142243Y0136075D01*
X0142243Y0137673D02*
X0140952Y0137673D01*
X0142243Y0139272D02*
X0095218Y0139272D01*
X0094586Y0139904D02*
X0090775Y0139904D01*
X0088080Y0137209D01*
X0088080Y0133399D01*
X0090775Y0130704D01*
X0094586Y0130704D01*
X0097280Y0133399D01*
X0097280Y0137209D01*
X0094586Y0139904D01*
X0097774Y0141500D02*
X0098012Y0141261D01*
X0099330Y0140716D01*
X0100756Y0140716D01*
X0102073Y0141261D01*
X0103081Y0142270D01*
X0103627Y0143587D01*
X0103627Y0145013D01*
X0103081Y0146330D01*
X0102073Y0147339D01*
X0100756Y0147884D01*
X0099330Y0147884D01*
X0098012Y0147339D01*
X0097774Y0147100D01*
X0088562Y0147100D01*
X0088323Y0147339D01*
X0087006Y0147884D01*
X0085580Y0147884D01*
X0084262Y0147339D01*
X0083254Y0146330D01*
X0082708Y0145013D01*
X0082708Y0143587D01*
X0083254Y0142270D01*
X0084262Y0141261D01*
X0085580Y0140716D01*
X0087006Y0140716D01*
X0088323Y0141261D01*
X0088562Y0141500D01*
X0097774Y0141500D01*
X0098956Y0140870D02*
X0087379Y0140870D01*
X0085206Y0140870D02*
X0020743Y0140870D01*
X0020743Y0139272D02*
X0090143Y0139272D01*
X0088545Y0137673D02*
X0020743Y0137673D01*
X0020743Y0136075D02*
X0088080Y0136075D01*
X0088080Y0134476D02*
X0053982Y0134476D01*
X0053479Y0134980D02*
X0051657Y0134980D01*
X0051657Y0130580D01*
X0051657Y0130580D01*
X0056057Y0130580D01*
X0056057Y0132402D01*
X0053479Y0134980D01*
X0051657Y0134980D02*
X0049834Y0134980D01*
X0047257Y0132402D01*
X0047257Y0130580D01*
X0051657Y0130580D01*
X0051657Y0130579D01*
X0051657Y0126180D01*
X0053479Y0126180D01*
X0056057Y0128757D01*
X0056057Y0130579D01*
X0051657Y0130579D01*
X0051657Y0130579D01*
X0051657Y0126180D01*
X0049834Y0126180D01*
X0047257Y0128757D01*
X0047257Y0130579D01*
X0051657Y0130579D01*
X0051657Y0130580D01*
X0051657Y0134980D01*
X0051657Y0134476D02*
X0051657Y0134476D01*
X0051657Y0132878D02*
X0051657Y0132878D01*
X0051657Y0131279D02*
X0051657Y0131279D01*
X0051657Y0129681D02*
X0051657Y0129681D01*
X0051657Y0128082D02*
X0051657Y0128082D01*
X0051657Y0126484D02*
X0051657Y0126484D01*
X0053784Y0126484D02*
X0099517Y0126484D01*
X0097918Y0124885D02*
X0091960Y0124885D01*
X0093306Y0123287D02*
X0096320Y0123287D01*
X0094721Y0121688D02*
X0093627Y0121688D01*
X0090043Y0121800D02*
X0065043Y0121800D01*
X0066960Y0124885D02*
X0088125Y0124885D01*
X0090200Y0131279D02*
X0056057Y0131279D01*
X0056057Y0129681D02*
X0131667Y0129681D01*
X0130015Y0128082D02*
X0055382Y0128082D01*
X0055581Y0132878D02*
X0088601Y0132878D01*
X0095161Y0131279D02*
X0129135Y0131279D01*
X0128264Y0132878D02*
X0096760Y0132878D01*
X0097280Y0134476D02*
X0128079Y0134476D01*
X0128460Y0136075D02*
X0097280Y0136075D01*
X0096816Y0137673D02*
X0129606Y0137673D01*
X0129544Y0140870D02*
X0101129Y0140870D01*
X0103164Y0142469D02*
X0107914Y0142469D01*
X0106525Y0144068D02*
X0103627Y0144068D01*
X0103356Y0145666D02*
X0105127Y0145666D01*
X0103728Y0147265D02*
X0102147Y0147265D01*
X0102329Y0148863D02*
X0012043Y0148863D01*
X0012043Y0147265D02*
X0084188Y0147265D01*
X0082979Y0145666D02*
X0012043Y0145666D01*
X0012043Y0144068D02*
X0082708Y0144068D01*
X0083171Y0142469D02*
X0019602Y0142469D01*
X0020743Y0134476D02*
X0049331Y0134476D01*
X0047733Y0132878D02*
X0020743Y0132878D01*
X0019750Y0131279D02*
X0047257Y0131279D01*
X0047257Y0129681D02*
X0020019Y0129681D01*
X0020681Y0128082D02*
X0047931Y0128082D01*
X0049530Y0126484D02*
X0020743Y0126484D01*
X0020419Y0124885D02*
X0063125Y0124885D01*
X0061779Y0123287D02*
X0019591Y0123287D01*
X0018136Y0121688D02*
X0061458Y0121688D01*
X0061871Y0120090D02*
X0019814Y0120090D01*
X0015043Y0116800D02*
X0093793Y0116800D01*
X0101293Y0124300D01*
X0135220Y0124300D01*
X0135279Y0124241D01*
X0130680Y0120090D02*
X0101042Y0120090D01*
X0099444Y0118491D02*
X0130920Y0118491D01*
X0129916Y0110499D02*
X0123472Y0110499D01*
X0124501Y0108900D02*
X0142243Y0108900D01*
X0142243Y0107302D02*
X0141323Y0107302D01*
X0140642Y0110499D02*
X0142243Y0110499D01*
X0142243Y0112097D02*
X0141970Y0112097D01*
X0147843Y0112097D02*
X0158588Y0112097D01*
X0158079Y0113696D02*
X0147843Y0113696D01*
X0147843Y0115294D02*
X0158136Y0115294D01*
X0158825Y0116893D02*
X0147843Y0116893D01*
X0147843Y0118491D02*
X0160920Y0118491D01*
X0161764Y0119641D02*
X0168794Y0119641D01*
X0170485Y0120341D01*
X0171779Y0121635D01*
X0172479Y0123326D01*
X0172479Y0125156D01*
X0171779Y0126847D01*
X0170485Y0128141D01*
X0168794Y0128841D01*
X0161764Y0128841D01*
X0160073Y0128141D01*
X0158779Y0126847D01*
X0158079Y0125156D01*
X0158079Y0123326D01*
X0158779Y0121635D01*
X0160073Y0120341D01*
X0161764Y0119641D01*
X0160680Y0120090D02*
X0147843Y0120090D01*
X0147843Y0121688D02*
X0158757Y0121688D01*
X0158095Y0123287D02*
X0147843Y0123287D01*
X0147843Y0124885D02*
X0158079Y0124885D01*
X0158629Y0126484D02*
X0147843Y0126484D01*
X0147843Y0128082D02*
X0160015Y0128082D01*
X0160073Y0130341D02*
X0161764Y0129641D01*
X0168794Y0129641D01*
X0170485Y0130341D01*
X0171779Y0131635D01*
X0172479Y0133326D01*
X0172479Y0135156D01*
X0171779Y0136847D01*
X0170485Y0138141D01*
X0168794Y0138841D01*
X0161764Y0138841D01*
X0160073Y0138141D01*
X0158779Y0136847D01*
X0158079Y0135156D01*
X0158079Y0133326D01*
X0158779Y0131635D01*
X0160073Y0130341D01*
X0159135Y0131279D02*
X0147843Y0131279D01*
X0147843Y0129681D02*
X0161667Y0129681D01*
X0158264Y0132878D02*
X0147843Y0132878D01*
X0147843Y0134476D02*
X0158079Y0134476D01*
X0158460Y0136075D02*
X0147843Y0136075D01*
X0147843Y0137673D02*
X0159606Y0137673D01*
X0160073Y0140341D02*
X0161764Y0139641D01*
X0168794Y0139641D01*
X0170485Y0140341D01*
X0171779Y0141635D01*
X0172479Y0143326D01*
X0172479Y0145156D01*
X0171779Y0146847D01*
X0170485Y0148141D01*
X0168794Y0148841D01*
X0161764Y0148841D01*
X0160073Y0148141D01*
X0158779Y0146847D01*
X0158079Y0145156D01*
X0158079Y0143326D01*
X0158779Y0141635D01*
X0160073Y0140341D01*
X0159544Y0140870D02*
X0147843Y0140870D01*
X0147843Y0139272D02*
X0196843Y0139272D01*
X0196843Y0140870D02*
X0171014Y0140870D01*
X0172124Y0142469D02*
X0197983Y0142469D01*
X0196843Y0137673D02*
X0170952Y0137673D01*
X0172098Y0136075D02*
X0196843Y0136075D01*
X0196843Y0134476D02*
X0172479Y0134476D01*
X0172293Y0132878D02*
X0196843Y0132878D01*
X0197835Y0131279D02*
X0171423Y0131279D01*
X0168890Y0129681D02*
X0197566Y0129681D01*
X0196904Y0128082D02*
X0170543Y0128082D01*
X0171929Y0126484D02*
X0196843Y0126484D01*
X0197166Y0124885D02*
X0172479Y0124885D01*
X0172463Y0123287D02*
X0197995Y0123287D01*
X0199449Y0121688D02*
X0171801Y0121688D01*
X0169878Y0120090D02*
X0197771Y0120090D01*
X0190721Y0110499D02*
X0170642Y0110499D01*
X0159916Y0110499D02*
X0147843Y0110499D01*
X0142243Y0102506D02*
X0142139Y0102506D01*
X0142243Y0100908D02*
X0141051Y0100908D01*
X0142243Y0099309D02*
X0125081Y0099309D01*
X0125666Y0097711D02*
X0129643Y0097711D01*
X0128475Y0096112D02*
X0125752Y0096112D01*
X0125355Y0094514D02*
X0128079Y0094514D01*
X0128249Y0092915D02*
X0124318Y0092915D01*
X0122654Y0091317D02*
X0129098Y0091317D01*
X0131577Y0089718D02*
X0124163Y0089718D01*
X0124825Y0088120D02*
X0130052Y0088120D01*
X0128644Y0086521D02*
X0124967Y0086521D01*
X0124724Y0084923D02*
X0128079Y0084923D01*
X0128080Y0083324D02*
X0124010Y0083324D01*
X0122291Y0081726D02*
X0128742Y0081726D01*
X0135338Y0074300D02*
X0135279Y0074241D01*
X0135338Y0074300D02*
X0142543Y0074300D01*
X0145043Y0071800D01*
X0145043Y0041800D01*
X0138379Y0035137D01*
X0138379Y0033129D01*
X0138300Y0033050D01*
X0133779Y0033770D02*
X0122032Y0033770D01*
X0123631Y0032172D02*
X0133779Y0032172D01*
X0137849Y0038566D02*
X0085275Y0038566D01*
X0084306Y0037597D02*
X0082484Y0037597D01*
X0082484Y0041997D01*
X0082484Y0041997D01*
X0086884Y0041997D01*
X0086884Y0040174D01*
X0084306Y0037597D01*
X0082484Y0038566D02*
X0082483Y0038566D01*
X0082483Y0040164D02*
X0082484Y0040164D01*
X0082483Y0041763D02*
X0082484Y0041763D01*
X0086884Y0041763D02*
X0125070Y0041763D01*
X0123522Y0043361D02*
X0111107Y0043361D01*
X0108978Y0043361D02*
X0086884Y0043361D01*
X0086874Y0040164D02*
X0130500Y0040164D01*
X0122380Y0044960D02*
X0113160Y0044960D01*
X0113627Y0046558D02*
X0121239Y0046558D01*
X0120097Y0048157D02*
X0113360Y0048157D01*
X0112156Y0049755D02*
X0118955Y0049755D01*
X0118908Y0028975D02*
X0093232Y0028975D01*
X0093727Y0027376D02*
X0120507Y0027376D01*
X0122105Y0025778D02*
X0093727Y0025778D01*
X0114612Y0020982D02*
X0119293Y0020982D01*
X0117111Y0019384D02*
X0116793Y0019384D01*
X0122486Y0020982D02*
X0127167Y0020982D01*
X0124985Y0019384D02*
X0124667Y0019384D01*
X0142979Y0032172D02*
X0163779Y0032172D01*
X0163779Y0033770D02*
X0142979Y0033770D01*
X0142645Y0035369D02*
X0164114Y0035369D01*
X0165712Y0036967D02*
X0144170Y0036967D01*
X0145768Y0038566D02*
X0175993Y0038566D01*
X0175993Y0040164D02*
X0170057Y0040164D01*
X0170485Y0040341D02*
X0171779Y0041635D01*
X0172479Y0043326D01*
X0172479Y0045156D01*
X0171779Y0046847D01*
X0170485Y0048141D01*
X0168794Y0048841D01*
X0161764Y0048841D01*
X0160073Y0048141D01*
X0158779Y0046847D01*
X0158079Y0045156D01*
X0158079Y0043326D01*
X0158779Y0041635D01*
X0160073Y0040341D01*
X0161764Y0039641D01*
X0168794Y0039641D01*
X0170485Y0040341D01*
X0171831Y0041763D02*
X0175993Y0041763D01*
X0175993Y0043361D02*
X0172479Y0043361D01*
X0172479Y0044960D02*
X0175993Y0044960D01*
X0175993Y0046558D02*
X0171898Y0046558D01*
X0170445Y0048157D02*
X0175993Y0048157D01*
X0175993Y0049755D02*
X0169070Y0049755D01*
X0168794Y0049641D02*
X0170485Y0050341D01*
X0171779Y0051635D01*
X0172479Y0053326D01*
X0172479Y0055156D01*
X0171779Y0056847D01*
X0170485Y0058141D01*
X0168794Y0058841D01*
X0161764Y0058841D01*
X0160073Y0058141D01*
X0158779Y0056847D01*
X0158079Y0055156D01*
X0158079Y0053326D01*
X0158779Y0051635D01*
X0160073Y0050341D01*
X0161764Y0049641D01*
X0168794Y0049641D01*
X0171497Y0051354D02*
X0175993Y0051354D01*
X0175993Y0052952D02*
X0172324Y0052952D01*
X0172479Y0054551D02*
X0175993Y0054551D01*
X0175993Y0056149D02*
X0172067Y0056149D01*
X0170877Y0057748D02*
X0175993Y0057748D01*
X0175993Y0059346D02*
X0147843Y0059346D01*
X0147843Y0057748D02*
X0159680Y0057748D01*
X0158490Y0056149D02*
X0147843Y0056149D01*
X0147843Y0054551D02*
X0158079Y0054551D01*
X0158234Y0052952D02*
X0147843Y0052952D01*
X0147843Y0051354D02*
X0159061Y0051354D01*
X0161488Y0049755D02*
X0147843Y0049755D01*
X0147843Y0048157D02*
X0160112Y0048157D01*
X0158660Y0046558D02*
X0147843Y0046558D01*
X0147843Y0044960D02*
X0158079Y0044960D01*
X0158079Y0043361D02*
X0147843Y0043361D01*
X0147843Y0041763D02*
X0158726Y0041763D01*
X0160500Y0040164D02*
X0147367Y0040164D01*
X0146629Y0039426D02*
X0146629Y0039426D01*
X0160073Y0060341D02*
X0161764Y0059641D01*
X0168794Y0059641D01*
X0170485Y0060341D01*
X0171779Y0061635D01*
X0172479Y0063326D01*
X0172479Y0065156D01*
X0171779Y0066847D01*
X0170485Y0068141D01*
X0168794Y0068841D01*
X0161764Y0068841D01*
X0160073Y0068141D01*
X0158779Y0066847D01*
X0158079Y0065156D01*
X0158079Y0063326D01*
X0158779Y0061635D01*
X0160073Y0060341D01*
X0159469Y0060945D02*
X0147843Y0060945D01*
X0147843Y0062543D02*
X0158403Y0062543D01*
X0158079Y0064142D02*
X0147843Y0064142D01*
X0147843Y0065740D02*
X0158321Y0065740D01*
X0159271Y0067339D02*
X0147843Y0067339D01*
X0147843Y0068937D02*
X0175993Y0068937D01*
X0175993Y0067339D02*
X0171286Y0067339D01*
X0172237Y0065740D02*
X0175993Y0065740D01*
X0175993Y0064142D02*
X0172479Y0064142D01*
X0172155Y0062543D02*
X0175993Y0062543D01*
X0175993Y0060945D02*
X0171088Y0060945D01*
X0168794Y0069641D02*
X0170485Y0070341D01*
X0171779Y0071635D01*
X0172479Y0073326D01*
X0172479Y0075156D01*
X0171779Y0076847D01*
X0170485Y0078141D01*
X0168794Y0078841D01*
X0161764Y0078841D01*
X0160073Y0078141D01*
X0158779Y0076847D01*
X0158079Y0075156D01*
X0158079Y0073326D01*
X0158779Y0071635D01*
X0160073Y0070341D01*
X0161764Y0069641D01*
X0168794Y0069641D01*
X0170679Y0070536D02*
X0175993Y0070536D01*
X0175993Y0072134D02*
X0171985Y0072134D01*
X0172479Y0073733D02*
X0175993Y0073733D01*
X0175993Y0075332D02*
X0172406Y0075332D01*
X0171695Y0076930D02*
X0175993Y0076930D01*
X0175993Y0078529D02*
X0169548Y0078529D01*
X0169967Y0080127D02*
X0175993Y0080127D01*
X0175993Y0081726D02*
X0171816Y0081726D01*
X0172478Y0083324D02*
X0175427Y0083324D01*
X0173296Y0084923D02*
X0172479Y0084923D01*
X0170954Y0088120D02*
X0170506Y0088120D01*
X0170993Y0089718D02*
X0168980Y0089718D01*
X0176593Y0089718D02*
X0177115Y0089718D01*
X0170993Y0097711D02*
X0170914Y0097711D01*
X0170993Y0099309D02*
X0147843Y0099309D01*
X0147843Y0097711D02*
X0159643Y0097711D01*
X0158475Y0096112D02*
X0147843Y0096112D01*
X0147843Y0094514D02*
X0158079Y0094514D01*
X0158249Y0092915D02*
X0147843Y0092915D01*
X0147843Y0091317D02*
X0159098Y0091317D01*
X0161577Y0089718D02*
X0147843Y0089718D01*
X0147843Y0088120D02*
X0160052Y0088120D01*
X0158644Y0086521D02*
X0147843Y0086521D01*
X0147843Y0084923D02*
X0158079Y0084923D01*
X0158080Y0083324D02*
X0148291Y0083324D01*
X0148627Y0081726D02*
X0158742Y0081726D01*
X0160590Y0080127D02*
X0148229Y0080127D01*
X0146511Y0078529D02*
X0161010Y0078529D01*
X0158863Y0076930D02*
X0143510Y0076930D01*
X0143574Y0078529D02*
X0139548Y0078529D01*
X0139967Y0080127D02*
X0141856Y0080127D01*
X0145043Y0081800D02*
X0145043Y0176800D01*
X0150043Y0181800D01*
X0177543Y0184300D01*
X0176499Y0191879D01*
X0173335Y0195220D02*
X0149664Y0195220D01*
X0148405Y0196479D02*
X0144594Y0196479D01*
X0141899Y0193784D01*
X0141899Y0191957D01*
X0140763Y0191116D01*
X0138748Y0191116D01*
X0136948Y0192916D01*
X0133137Y0192916D01*
X0130443Y0190221D01*
X0130443Y0186410D01*
X0133137Y0183716D01*
X0136948Y0183716D01*
X0138748Y0185516D01*
X0141479Y0185516D01*
X0141824Y0185464D01*
X0142030Y0185516D01*
X0142243Y0185516D01*
X0142566Y0185649D01*
X0142905Y0185734D01*
X0143076Y0185861D01*
X0143272Y0185942D01*
X0143519Y0186189D01*
X0144991Y0187279D01*
X0148405Y0187279D01*
X0151099Y0189973D01*
X0151099Y0193784D01*
X0148405Y0196479D01*
X0151099Y0193621D02*
X0171899Y0193621D01*
X0171899Y0192023D02*
X0151099Y0192023D01*
X0151099Y0190424D02*
X0171899Y0190424D01*
X0173047Y0188826D02*
X0149952Y0188826D01*
X0146499Y0191879D02*
X0141686Y0188316D01*
X0135043Y0188316D01*
X0130443Y0188826D02*
X0129443Y0188826D01*
X0129443Y0188316D02*
X0129443Y0190138D01*
X0126865Y0192716D01*
X0125043Y0192716D01*
X0125043Y0188316D01*
X0129443Y0188316D01*
X0125043Y0188316D01*
X0125043Y0188316D01*
X0125043Y0188316D01*
X0125043Y0192716D01*
X0123220Y0192716D01*
X0120643Y0190138D01*
X0120643Y0188316D01*
X0125042Y0188316D01*
X0125042Y0188316D01*
X0120643Y0188316D01*
X0120643Y0186493D01*
X0123220Y0183916D01*
X0125043Y0183916D01*
X0126865Y0183916D01*
X0129443Y0186493D01*
X0129443Y0188316D01*
X0129443Y0187227D02*
X0130443Y0187227D01*
X0131224Y0185629D02*
X0128578Y0185629D01*
X0126980Y0184030D02*
X0132823Y0184030D01*
X0137263Y0184030D02*
X0148267Y0184030D01*
X0146715Y0182432D02*
X0112791Y0182432D01*
X0114351Y0184030D02*
X0123106Y0184030D01*
X0125043Y0184030D02*
X0125043Y0184030D01*
X0125043Y0183916D02*
X0125043Y0188316D01*
X0125043Y0188316D01*
X0125043Y0183916D01*
X0125043Y0185629D02*
X0125043Y0185629D01*
X0125043Y0187227D02*
X0125043Y0187227D01*
X0125043Y0188826D02*
X0125043Y0188826D01*
X0125043Y0190424D02*
X0125043Y0190424D01*
X0125043Y0192023D02*
X0125043Y0192023D01*
X0127558Y0192023D02*
X0132244Y0192023D01*
X0130646Y0190424D02*
X0129157Y0190424D01*
X0122527Y0192023D02*
X0112723Y0192023D01*
X0114322Y0190424D02*
X0120929Y0190424D01*
X0120643Y0188826D02*
X0114985Y0188826D01*
X0115191Y0187227D02*
X0120643Y0187227D01*
X0121507Y0185629D02*
X0115013Y0185629D01*
X0106192Y0182432D02*
X0102791Y0182432D01*
X0102291Y0180833D02*
X0145116Y0180833D01*
X0143518Y0179235D02*
X0102291Y0179235D01*
X0102291Y0177636D02*
X0129569Y0177636D01*
X0128444Y0176038D02*
X0102291Y0176038D01*
X0102291Y0174439D02*
X0128079Y0174439D01*
X0128280Y0172841D02*
X0102291Y0172841D01*
X0102291Y0171242D02*
X0129172Y0171242D01*
X0131757Y0169644D02*
X0102291Y0169644D01*
X0103949Y0168045D02*
X0129978Y0168045D01*
X0128613Y0166447D02*
X0106772Y0166447D01*
X0109595Y0164848D02*
X0128079Y0164848D01*
X0128110Y0163250D02*
X0112419Y0163250D01*
X0115242Y0161651D02*
X0128773Y0161651D01*
X0130770Y0160053D02*
X0118065Y0160053D01*
X0120889Y0158454D02*
X0130830Y0158454D01*
X0128788Y0156856D02*
X0125056Y0156856D01*
X0126026Y0155257D02*
X0128121Y0155257D01*
X0128079Y0153659D02*
X0126127Y0153659D01*
X0122543Y0154300D02*
X0099491Y0167351D01*
X0099491Y0187194D01*
X0096192Y0182432D02*
X0092791Y0182432D01*
X0094351Y0184030D02*
X0094632Y0184030D01*
X0096691Y0180833D02*
X0012043Y0180833D01*
X0012043Y0179235D02*
X0096691Y0179235D01*
X0096691Y0177636D02*
X0093854Y0177636D01*
X0095702Y0176038D02*
X0096691Y0176038D01*
X0096691Y0174439D02*
X0096127Y0174439D01*
X0095818Y0172841D02*
X0096691Y0172841D01*
X0096691Y0171242D02*
X0095343Y0171242D01*
X0095343Y0169644D02*
X0096691Y0169644D01*
X0096691Y0168045D02*
X0095343Y0168045D01*
X0095343Y0166447D02*
X0096835Y0166447D01*
X0095784Y0164848D02*
X0098218Y0164848D01*
X0097182Y0163250D02*
X0101053Y0163250D01*
X0098581Y0161651D02*
X0103876Y0161651D01*
X0106699Y0160053D02*
X0099980Y0160053D01*
X0101378Y0158454D02*
X0109523Y0158454D01*
X0112346Y0156856D02*
X0102777Y0156856D01*
X0104176Y0155257D02*
X0115169Y0155257D01*
X0117992Y0153659D02*
X0105574Y0153659D01*
X0106973Y0152060D02*
X0111484Y0152060D01*
X0110394Y0150462D02*
X0108372Y0150462D01*
X0109770Y0148863D02*
X0110208Y0148863D01*
X0113793Y0149300D02*
X0130338Y0149300D01*
X0135279Y0154241D01*
X0139728Y0158454D02*
X0142243Y0158454D01*
X0142243Y0156856D02*
X0141770Y0156856D01*
X0142243Y0160053D02*
X0139788Y0160053D01*
X0141785Y0161651D02*
X0142243Y0161651D01*
X0142243Y0166447D02*
X0141944Y0166447D01*
X0142243Y0168045D02*
X0140580Y0168045D01*
X0142243Y0169644D02*
X0138800Y0169644D01*
X0141385Y0171242D02*
X0142243Y0171242D01*
X0142243Y0176038D02*
X0142114Y0176038D01*
X0142358Y0177636D02*
X0140989Y0177636D01*
X0148240Y0176038D02*
X0158444Y0176038D01*
X0158779Y0176847D02*
X0158079Y0175156D01*
X0158079Y0173326D01*
X0158779Y0171635D01*
X0160073Y0170341D01*
X0161764Y0169641D01*
X0168794Y0169641D01*
X0170485Y0170341D01*
X0171779Y0171635D01*
X0172479Y0173326D01*
X0172479Y0175156D01*
X0171779Y0176847D01*
X0170485Y0178141D01*
X0168794Y0178841D01*
X0161764Y0178841D01*
X0160073Y0178141D01*
X0158779Y0176847D01*
X0159569Y0177636D02*
X0149839Y0177636D01*
X0152752Y0179235D02*
X0204893Y0179235D01*
X0204893Y0180833D02*
X0170336Y0180833D01*
X0170989Y0177636D02*
X0204893Y0177636D01*
X0204893Y0176038D02*
X0172114Y0176038D01*
X0172479Y0174439D02*
X0204893Y0174439D01*
X0204893Y0172841D02*
X0172278Y0172841D01*
X0171385Y0171242D02*
X0204893Y0171242D01*
X0204893Y0169644D02*
X0168800Y0169644D01*
X0168909Y0168533D02*
X0168225Y0168641D01*
X0165279Y0168641D01*
X0165279Y0164241D01*
X0172279Y0164241D01*
X0172279Y0164587D01*
X0172170Y0165271D01*
X0171956Y0165930D01*
X0171642Y0166547D01*
X0171235Y0167107D01*
X0170745Y0167597D01*
X0170185Y0168004D01*
X0169568Y0168319D01*
X0168909Y0168533D01*
X0170104Y0168045D02*
X0204893Y0168045D01*
X0204893Y0166447D02*
X0171693Y0166447D01*
X0172238Y0164848D02*
X0204893Y0164848D01*
X0204893Y0163250D02*
X0172177Y0163250D01*
X0172170Y0163211D02*
X0172279Y0163895D01*
X0172279Y0164241D01*
X0165279Y0164241D01*
X0165279Y0164241D01*
X0165279Y0164241D01*
X0165279Y0159841D01*
X0168225Y0159841D01*
X0168909Y0159949D01*
X0169568Y0160163D01*
X0170185Y0160478D01*
X0170745Y0160885D01*
X0171235Y0161375D01*
X0171642Y0161935D01*
X0171956Y0162552D01*
X0172170Y0163211D01*
X0171436Y0161651D02*
X0204893Y0161651D01*
X0204893Y0160053D02*
X0169227Y0160053D01*
X0168794Y0158841D02*
X0170485Y0158141D01*
X0171779Y0156847D01*
X0172479Y0155156D01*
X0172479Y0153326D01*
X0171779Y0151635D01*
X0170485Y0150341D01*
X0168794Y0149641D01*
X0161764Y0149641D01*
X0160073Y0150341D01*
X0158779Y0151635D01*
X0158079Y0153326D01*
X0158079Y0155156D01*
X0158779Y0156847D01*
X0160073Y0158141D01*
X0161764Y0158841D01*
X0168794Y0158841D01*
X0169728Y0158454D02*
X0204893Y0158454D01*
X0204893Y0156856D02*
X0171770Y0156856D01*
X0172437Y0155257D02*
X0204893Y0155257D01*
X0204893Y0153659D02*
X0172479Y0153659D01*
X0171954Y0152060D02*
X0204893Y0152060D01*
X0204893Y0150462D02*
X0170605Y0150462D01*
X0171361Y0147265D02*
X0204893Y0147265D01*
X0204893Y0148863D02*
X0147843Y0148863D01*
X0147843Y0147265D02*
X0159197Y0147265D01*
X0158290Y0145666D02*
X0147843Y0145666D01*
X0147843Y0144068D02*
X0158079Y0144068D01*
X0158434Y0142469D02*
X0147843Y0142469D01*
X0142243Y0142469D02*
X0142124Y0142469D01*
X0142243Y0140870D02*
X0141014Y0140870D01*
X0135279Y0144241D02*
X0125220Y0144300D01*
X0110043Y0144300D01*
X0092543Y0164300D01*
X0092543Y0174300D01*
X0091231Y0177636D02*
X0078854Y0177636D01*
X0080702Y0176038D02*
X0089383Y0176038D01*
X0088958Y0174439D02*
X0081363Y0174439D01*
X0082962Y0172841D02*
X0089267Y0172841D01*
X0089743Y0171242D02*
X0084560Y0171242D01*
X0086159Y0169644D02*
X0089743Y0169644D01*
X0089743Y0168045D02*
X0087757Y0168045D01*
X0089356Y0166447D02*
X0089743Y0166447D01*
X0086232Y0161651D02*
X0012043Y0161651D01*
X0012043Y0160053D02*
X0087830Y0160053D01*
X0089429Y0158454D02*
X0065366Y0158454D01*
X0064901Y0158920D02*
X0061090Y0158920D01*
X0058395Y0156225D01*
X0058395Y0152414D01*
X0061090Y0149720D01*
X0064901Y0149720D01*
X0067595Y0152414D01*
X0067595Y0156225D01*
X0064901Y0158920D01*
X0066965Y0156856D02*
X0089026Y0156856D01*
X0088395Y0155257D02*
X0067595Y0155257D01*
X0067595Y0153659D02*
X0088395Y0153659D01*
X0088750Y0152060D02*
X0067241Y0152060D01*
X0065643Y0150462D02*
X0090348Y0150462D01*
X0088397Y0147265D02*
X0097938Y0147265D01*
X0100043Y0144300D02*
X0086293Y0144300D01*
X0095643Y0150462D02*
X0100931Y0150462D01*
X0099532Y0152060D02*
X0097241Y0152060D01*
X0097595Y0153659D02*
X0098133Y0153659D01*
X0092995Y0154320D02*
X0092523Y0159320D01*
X0077543Y0174300D01*
X0076231Y0177636D02*
X0012043Y0177636D01*
X0012043Y0176038D02*
X0074383Y0176038D01*
X0073958Y0174439D02*
X0012043Y0174439D01*
X0012043Y0172841D02*
X0036239Y0172841D01*
X0035210Y0171812D02*
X0035210Y0169989D01*
X0035210Y0168166D01*
X0037787Y0165589D01*
X0039609Y0165589D01*
X0039609Y0169989D01*
X0035210Y0169989D01*
X0039609Y0169989D01*
X0039609Y0169989D01*
X0039609Y0174389D01*
X0037787Y0174389D01*
X0035210Y0171812D01*
X0035210Y0171242D02*
X0012043Y0171242D01*
X0012043Y0169644D02*
X0035210Y0169644D01*
X0035331Y0168045D02*
X0012043Y0168045D01*
X0012043Y0166447D02*
X0036929Y0166447D01*
X0039609Y0166447D02*
X0039610Y0166447D01*
X0039610Y0165589D02*
X0041432Y0165589D01*
X0044010Y0168166D01*
X0044010Y0169989D01*
X0044010Y0171812D01*
X0041432Y0174389D01*
X0039610Y0174389D01*
X0039610Y0169989D01*
X0044010Y0169989D01*
X0039610Y0169989D01*
X0039610Y0169989D01*
X0039609Y0169989D01*
X0039610Y0169989D01*
X0039610Y0165589D01*
X0042290Y0166447D02*
X0081436Y0166447D01*
X0079838Y0168045D02*
X0043888Y0168045D01*
X0044010Y0169644D02*
X0078239Y0169644D01*
X0075559Y0171242D02*
X0044010Y0171242D01*
X0042980Y0172841D02*
X0074267Y0172841D01*
X0083035Y0164848D02*
X0012043Y0164848D01*
X0012043Y0163250D02*
X0084633Y0163250D01*
X0086192Y0182432D02*
X0082260Y0182432D01*
X0083991Y0184030D02*
X0084632Y0184030D01*
X0079691Y0184030D02*
X0079291Y0184030D01*
X0079291Y0182432D02*
X0079691Y0182432D01*
X0079691Y0185629D02*
X0079291Y0185629D01*
X0079291Y0188826D02*
X0079691Y0188826D01*
X0079691Y0190424D02*
X0079291Y0190424D01*
X0079291Y0192023D02*
X0079691Y0192023D01*
X0082128Y0192023D02*
X0086260Y0192023D01*
X0084661Y0190424D02*
X0083943Y0190424D01*
X0076854Y0192023D02*
X0072723Y0192023D01*
X0074322Y0190424D02*
X0075040Y0190424D01*
X0074991Y0184030D02*
X0074351Y0184030D01*
X0072791Y0182432D02*
X0076722Y0182432D01*
X0066192Y0182432D02*
X0062791Y0182432D01*
X0064351Y0184030D02*
X0064632Y0184030D01*
X0064661Y0190424D02*
X0064322Y0190424D01*
X0062723Y0192023D02*
X0066260Y0192023D01*
X0056260Y0192023D02*
X0043746Y0192023D01*
X0043509Y0192595D02*
X0042215Y0193889D01*
X0040525Y0194589D01*
X0038695Y0194589D01*
X0037004Y0193889D01*
X0035710Y0192595D01*
X0035010Y0190904D01*
X0035010Y0189074D01*
X0035710Y0187383D01*
X0037004Y0186089D01*
X0038695Y0185389D01*
X0040525Y0185389D01*
X0042215Y0186089D01*
X0043509Y0187383D01*
X0044210Y0189074D01*
X0044210Y0190904D01*
X0043509Y0192595D01*
X0042483Y0193621D02*
X0141899Y0193621D01*
X0141899Y0192023D02*
X0137841Y0192023D01*
X0143335Y0195220D02*
X0024591Y0195220D01*
X0025253Y0193621D02*
X0036737Y0193621D01*
X0035473Y0192023D02*
X0025842Y0192023D01*
X0025842Y0190424D02*
X0035010Y0190424D01*
X0035112Y0188826D02*
X0025811Y0188826D01*
X0025149Y0187227D02*
X0035866Y0187227D01*
X0038116Y0185629D02*
X0024358Y0185629D01*
X0022760Y0184030D02*
X0054632Y0184030D01*
X0053970Y0185629D02*
X0041104Y0185629D01*
X0043353Y0187227D02*
X0053791Y0187227D01*
X0053998Y0188826D02*
X0044107Y0188826D01*
X0044210Y0190424D02*
X0054661Y0190424D01*
X0056192Y0182432D02*
X0019630Y0182432D01*
X0015455Y0182432D02*
X0012043Y0182432D01*
X0012043Y0184030D02*
X0012325Y0184030D01*
X0012043Y0158454D02*
X0060624Y0158454D01*
X0059026Y0156856D02*
X0012043Y0156856D01*
X0012043Y0155257D02*
X0058395Y0155257D01*
X0058395Y0153659D02*
X0012043Y0153659D01*
X0012043Y0152060D02*
X0058750Y0152060D01*
X0060348Y0150462D02*
X0012043Y0150462D01*
X0039609Y0168045D02*
X0039610Y0168045D01*
X0039609Y0169644D02*
X0039610Y0169644D01*
X0039609Y0171242D02*
X0039610Y0171242D01*
X0039609Y0172841D02*
X0039610Y0172841D01*
X0092723Y0192023D02*
X0096260Y0192023D01*
X0094661Y0190424D02*
X0094322Y0190424D01*
X0102723Y0192023D02*
X0106260Y0192023D01*
X0104661Y0190424D02*
X0104322Y0190424D01*
X0104351Y0184030D02*
X0104632Y0184030D01*
X0142516Y0185629D02*
X0161233Y0185629D01*
X0158079Y0174439D02*
X0147843Y0174439D01*
X0147843Y0172841D02*
X0158280Y0172841D01*
X0159172Y0171242D02*
X0147843Y0171242D01*
X0147843Y0169644D02*
X0161757Y0169644D01*
X0161648Y0168533D02*
X0160990Y0168319D01*
X0160373Y0168004D01*
X0159812Y0167597D01*
X0159323Y0167107D01*
X0158916Y0166547D01*
X0158601Y0165930D01*
X0158387Y0165271D01*
X0158279Y0164587D01*
X0158279Y0164241D01*
X0165279Y0164241D01*
X0165279Y0164241D01*
X0165279Y0168641D01*
X0162333Y0168641D01*
X0161648Y0168533D01*
X0160453Y0168045D02*
X0147843Y0168045D01*
X0147843Y0166447D02*
X0158864Y0166447D01*
X0158320Y0164848D02*
X0147843Y0164848D01*
X0147843Y0163250D02*
X0158381Y0163250D01*
X0158387Y0163211D02*
X0158601Y0162552D01*
X0158916Y0161935D01*
X0159323Y0161375D01*
X0159812Y0160885D01*
X0160373Y0160478D01*
X0160990Y0160163D01*
X0161648Y0159949D01*
X0162333Y0159841D01*
X0165279Y0159841D01*
X0165279Y0164241D01*
X0165279Y0164241D01*
X0158279Y0164241D01*
X0158279Y0163895D01*
X0158387Y0163211D01*
X0159122Y0161651D02*
X0147843Y0161651D01*
X0147843Y0160053D02*
X0161330Y0160053D01*
X0160830Y0158454D02*
X0147843Y0158454D01*
X0147843Y0156856D02*
X0158788Y0156856D01*
X0158121Y0155257D02*
X0147843Y0155257D01*
X0147843Y0153659D02*
X0158079Y0153659D01*
X0158603Y0152060D02*
X0147843Y0152060D01*
X0147843Y0150462D02*
X0159953Y0150462D01*
X0165279Y0160053D02*
X0165279Y0160053D01*
X0165279Y0161651D02*
X0165279Y0161651D01*
X0165279Y0163250D02*
X0165279Y0163250D01*
X0165279Y0164848D02*
X0165279Y0164848D01*
X0165279Y0166447D02*
X0165279Y0166447D01*
X0165279Y0168045D02*
X0165279Y0168045D01*
X0179640Y0182432D02*
X0196705Y0182432D01*
X0193575Y0184030D02*
X0180379Y0184030D01*
X0180186Y0185629D02*
X0191977Y0185629D01*
X0191186Y0187227D02*
X0179966Y0187227D01*
X0179952Y0188826D02*
X0190524Y0188826D01*
X0190493Y0190424D02*
X0181099Y0190424D01*
X0181099Y0192023D02*
X0190493Y0192023D01*
X0191082Y0193621D02*
X0181099Y0193621D01*
X0179664Y0195220D02*
X0191744Y0195220D01*
X0200880Y0182432D02*
X0204893Y0182432D01*
X0204893Y0184030D02*
X0204010Y0184030D01*
X0174313Y0187227D02*
X0144922Y0187227D01*
X0172268Y0145666D02*
X0204893Y0145666D01*
X0204893Y0144068D02*
X0172479Y0144068D01*
X0184141Y0105703D02*
X0190386Y0105703D01*
X0190275Y0104105D02*
X0184940Y0104105D01*
X0185076Y0102506D02*
X0190163Y0102506D01*
X0190051Y0100908D02*
X0184645Y0100908D01*
X0158152Y0075332D02*
X0145471Y0075332D01*
X0147069Y0073733D02*
X0158079Y0073733D01*
X0158572Y0072134D02*
X0147843Y0072134D01*
X0147843Y0070536D02*
X0159878Y0070536D01*
X0142243Y0070536D02*
X0140679Y0070536D01*
X0141913Y0086521D02*
X0142243Y0086521D01*
X0142243Y0088120D02*
X0140506Y0088120D01*
X0138980Y0089718D02*
X0142243Y0089718D01*
X0142243Y0091317D02*
X0141460Y0091317D01*
X0142083Y0096112D02*
X0142243Y0096112D01*
X0142243Y0097711D02*
X0140914Y0097711D01*
X0129507Y0100908D02*
X0123754Y0100908D01*
X0123192Y0102506D02*
X0128418Y0102506D01*
X0128079Y0104105D02*
X0124385Y0104105D01*
X0124967Y0105703D02*
X0128306Y0105703D01*
X0129234Y0107302D02*
X0124967Y0107302D01*
X0116780Y0100908D02*
X0094790Y0100908D01*
X0095055Y0099309D02*
X0115453Y0099309D01*
X0114868Y0097711D02*
X0097079Y0097711D01*
X0099104Y0096112D02*
X0114782Y0096112D01*
X0115179Y0094514D02*
X0101128Y0094514D01*
X0103152Y0092915D02*
X0116216Y0092915D01*
X0115880Y0091317D02*
X0105177Y0091317D01*
X0107201Y0089718D02*
X0114371Y0089718D01*
X0113709Y0088120D02*
X0109226Y0088120D01*
X0111250Y0086521D02*
X0113567Y0086521D01*
X0113810Y0084923D02*
X0113275Y0084923D01*
X0115342Y0102506D02*
X0096388Y0102506D01*
X0097280Y0104105D02*
X0114149Y0104105D01*
X0113567Y0105703D02*
X0097280Y0105703D01*
X0097188Y0107302D02*
X0113567Y0107302D01*
X0114033Y0108900D02*
X0095589Y0108900D01*
X0089771Y0108900D02*
X0082908Y0108900D01*
X0084932Y0107302D02*
X0088173Y0107302D01*
X0088080Y0105703D02*
X0086957Y0105703D01*
X0080884Y0110499D02*
X0115062Y0110499D01*
X0109676Y0112097D02*
X0078859Y0112097D01*
X0087985Y0084923D02*
X0087986Y0084923D01*
X0087985Y0083324D02*
X0087986Y0083324D01*
X0087985Y0081726D02*
X0087986Y0081726D01*
X0171046Y0036967D02*
X0175993Y0036967D01*
X0175993Y0035369D02*
X0172645Y0035369D01*
X0172979Y0033770D02*
X0175993Y0033770D01*
X0175993Y0032172D02*
X0172979Y0032172D01*
X0203643Y0016187D02*
X0204893Y0016187D01*
X0202743Y0062543D02*
X0202343Y0062543D01*
X0202343Y0064142D02*
X0202743Y0064142D01*
X0202743Y0065740D02*
X0202343Y0065740D01*
M02*
