%
M48
M72
T01C0.01969
T02C0.03150
T03C0.03200
T04C0.03937
T05C0.04000
T06C0.07480
T07C0.12598
%
T01
X56293Y61800
X95043Y11800
X128793Y11800
X110043Y46800
X123793Y73050
X145043Y81800
X112543Y114300
X90043Y121800
X86293Y144300
X100043Y144300
X113793Y149300
X122543Y154300
X92543Y174300
X77543Y174300
X65043Y121800
X175043Y11800
T02
X45397Y37400
X50121Y34251
X50121Y40550
X45397Y43700
X50121Y46849
X113015Y16692
X120889Y16692
X128763Y16692
T03
X39610Y189989
X39610Y169989
X62995Y154320
X51657Y130580
X51657Y110580
X74019Y91209
X66519Y86209
X74019Y81209
X87986Y80934
X87986Y90934
X92680Y105304
X92680Y135304
X92995Y154320
X125043Y188316
X135043Y188316
X146499Y191879
X135279Y174241
X135279Y164241
X135279Y154241
X135279Y144241
X135279Y134241
X135279Y124241
X135279Y114241
X135279Y104241
X135279Y94241
X135279Y84241
X135279Y74241
X135279Y64241
X135279Y54241
X135279Y44241
X138379Y33129
X89127Y16574
X89127Y26574
X82484Y41997
X82484Y51997
X63862Y25619
X63862Y15619
X165279Y44241
X165279Y54241
X165279Y64241
X165279Y74241
X165279Y84241
X165279Y94241
X165279Y104241
X165279Y114241
X165279Y124241
X165279Y134241
X165279Y144241
X165279Y154241
X165279Y164241
X165279Y174241
X176499Y191879
X180476Y102863
X180476Y92863
X168379Y33129
T04
X105141Y16692
X136637Y16692
T05
X59491Y187194
X69491Y187194
X79491Y187194
X89491Y187194
X99491Y187194
X109491Y187194
X119267Y106643
X120267Y96643
X119267Y86643
X202543Y66800
X202543Y76800
X202543Y86800
X202543Y96800
X202543Y106800
X202543Y116800
X202543Y126800
X202543Y136800
X15043Y136800
X15043Y126800
X15043Y116800
X15043Y106800
X15043Y96800
X15043Y86800
X15043Y76800
X15043Y66800
T06
X30043Y26180
X30043Y54920
T07
X17543Y190550
X198793Y9300
X17543Y9300
X198793Y190550
M30
