G75*
%MOIN*%
%OFA0B0*%
%FSLAX25Y25*%
%IPPOS*%
%LPD*%
%AMOC8*
5,1,8,0,0,1.08239X$1,22.5*
%
%ADD10C,0.00000*%
D10*
X0010043Y0001800D02*
X0010043Y0198650D01*
X0206893Y0198650D01*
X0206893Y0001800D01*
X0010043Y0001800D01*
X0011244Y0009300D02*
X0011246Y0009458D01*
X0011252Y0009616D01*
X0011262Y0009774D01*
X0011276Y0009932D01*
X0011294Y0010089D01*
X0011315Y0010246D01*
X0011341Y0010402D01*
X0011371Y0010558D01*
X0011404Y0010713D01*
X0011442Y0010866D01*
X0011483Y0011019D01*
X0011528Y0011171D01*
X0011577Y0011322D01*
X0011630Y0011471D01*
X0011686Y0011619D01*
X0011746Y0011765D01*
X0011810Y0011910D01*
X0011878Y0012053D01*
X0011949Y0012195D01*
X0012023Y0012335D01*
X0012101Y0012472D01*
X0012183Y0012608D01*
X0012267Y0012742D01*
X0012356Y0012873D01*
X0012447Y0013002D01*
X0012542Y0013129D01*
X0012639Y0013254D01*
X0012740Y0013376D01*
X0012844Y0013495D01*
X0012951Y0013612D01*
X0013061Y0013726D01*
X0013174Y0013837D01*
X0013289Y0013946D01*
X0013407Y0014051D01*
X0013528Y0014153D01*
X0013651Y0014253D01*
X0013777Y0014349D01*
X0013905Y0014442D01*
X0014035Y0014532D01*
X0014168Y0014618D01*
X0014303Y0014702D01*
X0014439Y0014781D01*
X0014578Y0014858D01*
X0014719Y0014930D01*
X0014861Y0015000D01*
X0015005Y0015065D01*
X0015151Y0015127D01*
X0015298Y0015185D01*
X0015447Y0015240D01*
X0015597Y0015291D01*
X0015748Y0015338D01*
X0015900Y0015381D01*
X0016053Y0015420D01*
X0016208Y0015456D01*
X0016363Y0015487D01*
X0016519Y0015515D01*
X0016675Y0015539D01*
X0016832Y0015559D01*
X0016990Y0015575D01*
X0017147Y0015587D01*
X0017306Y0015595D01*
X0017464Y0015599D01*
X0017622Y0015599D01*
X0017780Y0015595D01*
X0017939Y0015587D01*
X0018096Y0015575D01*
X0018254Y0015559D01*
X0018411Y0015539D01*
X0018567Y0015515D01*
X0018723Y0015487D01*
X0018878Y0015456D01*
X0019033Y0015420D01*
X0019186Y0015381D01*
X0019338Y0015338D01*
X0019489Y0015291D01*
X0019639Y0015240D01*
X0019788Y0015185D01*
X0019935Y0015127D01*
X0020081Y0015065D01*
X0020225Y0015000D01*
X0020367Y0014930D01*
X0020508Y0014858D01*
X0020647Y0014781D01*
X0020783Y0014702D01*
X0020918Y0014618D01*
X0021051Y0014532D01*
X0021181Y0014442D01*
X0021309Y0014349D01*
X0021435Y0014253D01*
X0021558Y0014153D01*
X0021679Y0014051D01*
X0021797Y0013946D01*
X0021912Y0013837D01*
X0022025Y0013726D01*
X0022135Y0013612D01*
X0022242Y0013495D01*
X0022346Y0013376D01*
X0022447Y0013254D01*
X0022544Y0013129D01*
X0022639Y0013002D01*
X0022730Y0012873D01*
X0022819Y0012742D01*
X0022903Y0012608D01*
X0022985Y0012472D01*
X0023063Y0012335D01*
X0023137Y0012195D01*
X0023208Y0012053D01*
X0023276Y0011910D01*
X0023340Y0011765D01*
X0023400Y0011619D01*
X0023456Y0011471D01*
X0023509Y0011322D01*
X0023558Y0011171D01*
X0023603Y0011019D01*
X0023644Y0010866D01*
X0023682Y0010713D01*
X0023715Y0010558D01*
X0023745Y0010402D01*
X0023771Y0010246D01*
X0023792Y0010089D01*
X0023810Y0009932D01*
X0023824Y0009774D01*
X0023834Y0009616D01*
X0023840Y0009458D01*
X0023842Y0009300D01*
X0023840Y0009142D01*
X0023834Y0008984D01*
X0023824Y0008826D01*
X0023810Y0008668D01*
X0023792Y0008511D01*
X0023771Y0008354D01*
X0023745Y0008198D01*
X0023715Y0008042D01*
X0023682Y0007887D01*
X0023644Y0007734D01*
X0023603Y0007581D01*
X0023558Y0007429D01*
X0023509Y0007278D01*
X0023456Y0007129D01*
X0023400Y0006981D01*
X0023340Y0006835D01*
X0023276Y0006690D01*
X0023208Y0006547D01*
X0023137Y0006405D01*
X0023063Y0006265D01*
X0022985Y0006128D01*
X0022903Y0005992D01*
X0022819Y0005858D01*
X0022730Y0005727D01*
X0022639Y0005598D01*
X0022544Y0005471D01*
X0022447Y0005346D01*
X0022346Y0005224D01*
X0022242Y0005105D01*
X0022135Y0004988D01*
X0022025Y0004874D01*
X0021912Y0004763D01*
X0021797Y0004654D01*
X0021679Y0004549D01*
X0021558Y0004447D01*
X0021435Y0004347D01*
X0021309Y0004251D01*
X0021181Y0004158D01*
X0021051Y0004068D01*
X0020918Y0003982D01*
X0020783Y0003898D01*
X0020647Y0003819D01*
X0020508Y0003742D01*
X0020367Y0003670D01*
X0020225Y0003600D01*
X0020081Y0003535D01*
X0019935Y0003473D01*
X0019788Y0003415D01*
X0019639Y0003360D01*
X0019489Y0003309D01*
X0019338Y0003262D01*
X0019186Y0003219D01*
X0019033Y0003180D01*
X0018878Y0003144D01*
X0018723Y0003113D01*
X0018567Y0003085D01*
X0018411Y0003061D01*
X0018254Y0003041D01*
X0018096Y0003025D01*
X0017939Y0003013D01*
X0017780Y0003005D01*
X0017622Y0003001D01*
X0017464Y0003001D01*
X0017306Y0003005D01*
X0017147Y0003013D01*
X0016990Y0003025D01*
X0016832Y0003041D01*
X0016675Y0003061D01*
X0016519Y0003085D01*
X0016363Y0003113D01*
X0016208Y0003144D01*
X0016053Y0003180D01*
X0015900Y0003219D01*
X0015748Y0003262D01*
X0015597Y0003309D01*
X0015447Y0003360D01*
X0015298Y0003415D01*
X0015151Y0003473D01*
X0015005Y0003535D01*
X0014861Y0003600D01*
X0014719Y0003670D01*
X0014578Y0003742D01*
X0014439Y0003819D01*
X0014303Y0003898D01*
X0014168Y0003982D01*
X0014035Y0004068D01*
X0013905Y0004158D01*
X0013777Y0004251D01*
X0013651Y0004347D01*
X0013528Y0004447D01*
X0013407Y0004549D01*
X0013289Y0004654D01*
X0013174Y0004763D01*
X0013061Y0004874D01*
X0012951Y0004988D01*
X0012844Y0005105D01*
X0012740Y0005224D01*
X0012639Y0005346D01*
X0012542Y0005471D01*
X0012447Y0005598D01*
X0012356Y0005727D01*
X0012267Y0005858D01*
X0012183Y0005992D01*
X0012101Y0006128D01*
X0012023Y0006265D01*
X0011949Y0006405D01*
X0011878Y0006547D01*
X0011810Y0006690D01*
X0011746Y0006835D01*
X0011686Y0006981D01*
X0011630Y0007129D01*
X0011577Y0007278D01*
X0011528Y0007429D01*
X0011483Y0007581D01*
X0011442Y0007734D01*
X0011404Y0007887D01*
X0011371Y0008042D01*
X0011341Y0008198D01*
X0011315Y0008354D01*
X0011294Y0008511D01*
X0011276Y0008668D01*
X0011262Y0008826D01*
X0011252Y0008984D01*
X0011246Y0009142D01*
X0011244Y0009300D01*
X0103172Y0016692D02*
X0103174Y0016780D01*
X0103180Y0016868D01*
X0103190Y0016956D01*
X0103204Y0017044D01*
X0103221Y0017130D01*
X0103243Y0017216D01*
X0103268Y0017300D01*
X0103298Y0017384D01*
X0103330Y0017466D01*
X0103367Y0017546D01*
X0103407Y0017625D01*
X0103451Y0017702D01*
X0103498Y0017777D01*
X0103548Y0017849D01*
X0103602Y0017920D01*
X0103658Y0017987D01*
X0103718Y0018053D01*
X0103780Y0018115D01*
X0103846Y0018175D01*
X0103913Y0018231D01*
X0103984Y0018285D01*
X0104056Y0018335D01*
X0104131Y0018382D01*
X0104208Y0018426D01*
X0104287Y0018466D01*
X0104367Y0018503D01*
X0104449Y0018535D01*
X0104533Y0018565D01*
X0104617Y0018590D01*
X0104703Y0018612D01*
X0104789Y0018629D01*
X0104877Y0018643D01*
X0104965Y0018653D01*
X0105053Y0018659D01*
X0105141Y0018661D01*
X0105229Y0018659D01*
X0105317Y0018653D01*
X0105405Y0018643D01*
X0105493Y0018629D01*
X0105579Y0018612D01*
X0105665Y0018590D01*
X0105749Y0018565D01*
X0105833Y0018535D01*
X0105915Y0018503D01*
X0105995Y0018466D01*
X0106074Y0018426D01*
X0106151Y0018382D01*
X0106226Y0018335D01*
X0106298Y0018285D01*
X0106369Y0018231D01*
X0106436Y0018175D01*
X0106502Y0018115D01*
X0106564Y0018053D01*
X0106624Y0017987D01*
X0106680Y0017920D01*
X0106734Y0017849D01*
X0106784Y0017777D01*
X0106831Y0017702D01*
X0106875Y0017625D01*
X0106915Y0017546D01*
X0106952Y0017466D01*
X0106984Y0017384D01*
X0107014Y0017300D01*
X0107039Y0017216D01*
X0107061Y0017130D01*
X0107078Y0017044D01*
X0107092Y0016956D01*
X0107102Y0016868D01*
X0107108Y0016780D01*
X0107110Y0016692D01*
X0107108Y0016604D01*
X0107102Y0016516D01*
X0107092Y0016428D01*
X0107078Y0016340D01*
X0107061Y0016254D01*
X0107039Y0016168D01*
X0107014Y0016084D01*
X0106984Y0016000D01*
X0106952Y0015918D01*
X0106915Y0015838D01*
X0106875Y0015759D01*
X0106831Y0015682D01*
X0106784Y0015607D01*
X0106734Y0015535D01*
X0106680Y0015464D01*
X0106624Y0015397D01*
X0106564Y0015331D01*
X0106502Y0015269D01*
X0106436Y0015209D01*
X0106369Y0015153D01*
X0106298Y0015099D01*
X0106226Y0015049D01*
X0106151Y0015002D01*
X0106074Y0014958D01*
X0105995Y0014918D01*
X0105915Y0014881D01*
X0105833Y0014849D01*
X0105749Y0014819D01*
X0105665Y0014794D01*
X0105579Y0014772D01*
X0105493Y0014755D01*
X0105405Y0014741D01*
X0105317Y0014731D01*
X0105229Y0014725D01*
X0105141Y0014723D01*
X0105053Y0014725D01*
X0104965Y0014731D01*
X0104877Y0014741D01*
X0104789Y0014755D01*
X0104703Y0014772D01*
X0104617Y0014794D01*
X0104533Y0014819D01*
X0104449Y0014849D01*
X0104367Y0014881D01*
X0104287Y0014918D01*
X0104208Y0014958D01*
X0104131Y0015002D01*
X0104056Y0015049D01*
X0103984Y0015099D01*
X0103913Y0015153D01*
X0103846Y0015209D01*
X0103780Y0015269D01*
X0103718Y0015331D01*
X0103658Y0015397D01*
X0103602Y0015464D01*
X0103548Y0015535D01*
X0103498Y0015607D01*
X0103451Y0015682D01*
X0103407Y0015759D01*
X0103367Y0015838D01*
X0103330Y0015918D01*
X0103298Y0016000D01*
X0103268Y0016084D01*
X0103243Y0016168D01*
X0103221Y0016254D01*
X0103204Y0016340D01*
X0103190Y0016428D01*
X0103180Y0016516D01*
X0103174Y0016604D01*
X0103172Y0016692D01*
X0134668Y0016692D02*
X0134670Y0016780D01*
X0134676Y0016868D01*
X0134686Y0016956D01*
X0134700Y0017044D01*
X0134717Y0017130D01*
X0134739Y0017216D01*
X0134764Y0017300D01*
X0134794Y0017384D01*
X0134826Y0017466D01*
X0134863Y0017546D01*
X0134903Y0017625D01*
X0134947Y0017702D01*
X0134994Y0017777D01*
X0135044Y0017849D01*
X0135098Y0017920D01*
X0135154Y0017987D01*
X0135214Y0018053D01*
X0135276Y0018115D01*
X0135342Y0018175D01*
X0135409Y0018231D01*
X0135480Y0018285D01*
X0135552Y0018335D01*
X0135627Y0018382D01*
X0135704Y0018426D01*
X0135783Y0018466D01*
X0135863Y0018503D01*
X0135945Y0018535D01*
X0136029Y0018565D01*
X0136113Y0018590D01*
X0136199Y0018612D01*
X0136285Y0018629D01*
X0136373Y0018643D01*
X0136461Y0018653D01*
X0136549Y0018659D01*
X0136637Y0018661D01*
X0136725Y0018659D01*
X0136813Y0018653D01*
X0136901Y0018643D01*
X0136989Y0018629D01*
X0137075Y0018612D01*
X0137161Y0018590D01*
X0137245Y0018565D01*
X0137329Y0018535D01*
X0137411Y0018503D01*
X0137491Y0018466D01*
X0137570Y0018426D01*
X0137647Y0018382D01*
X0137722Y0018335D01*
X0137794Y0018285D01*
X0137865Y0018231D01*
X0137932Y0018175D01*
X0137998Y0018115D01*
X0138060Y0018053D01*
X0138120Y0017987D01*
X0138176Y0017920D01*
X0138230Y0017849D01*
X0138280Y0017777D01*
X0138327Y0017702D01*
X0138371Y0017625D01*
X0138411Y0017546D01*
X0138448Y0017466D01*
X0138480Y0017384D01*
X0138510Y0017300D01*
X0138535Y0017216D01*
X0138557Y0017130D01*
X0138574Y0017044D01*
X0138588Y0016956D01*
X0138598Y0016868D01*
X0138604Y0016780D01*
X0138606Y0016692D01*
X0138604Y0016604D01*
X0138598Y0016516D01*
X0138588Y0016428D01*
X0138574Y0016340D01*
X0138557Y0016254D01*
X0138535Y0016168D01*
X0138510Y0016084D01*
X0138480Y0016000D01*
X0138448Y0015918D01*
X0138411Y0015838D01*
X0138371Y0015759D01*
X0138327Y0015682D01*
X0138280Y0015607D01*
X0138230Y0015535D01*
X0138176Y0015464D01*
X0138120Y0015397D01*
X0138060Y0015331D01*
X0137998Y0015269D01*
X0137932Y0015209D01*
X0137865Y0015153D01*
X0137794Y0015099D01*
X0137722Y0015049D01*
X0137647Y0015002D01*
X0137570Y0014958D01*
X0137491Y0014918D01*
X0137411Y0014881D01*
X0137329Y0014849D01*
X0137245Y0014819D01*
X0137161Y0014794D01*
X0137075Y0014772D01*
X0136989Y0014755D01*
X0136901Y0014741D01*
X0136813Y0014731D01*
X0136725Y0014725D01*
X0136637Y0014723D01*
X0136549Y0014725D01*
X0136461Y0014731D01*
X0136373Y0014741D01*
X0136285Y0014755D01*
X0136199Y0014772D01*
X0136113Y0014794D01*
X0136029Y0014819D01*
X0135945Y0014849D01*
X0135863Y0014881D01*
X0135783Y0014918D01*
X0135704Y0014958D01*
X0135627Y0015002D01*
X0135552Y0015049D01*
X0135480Y0015099D01*
X0135409Y0015153D01*
X0135342Y0015209D01*
X0135276Y0015269D01*
X0135214Y0015331D01*
X0135154Y0015397D01*
X0135098Y0015464D01*
X0135044Y0015535D01*
X0134994Y0015607D01*
X0134947Y0015682D01*
X0134903Y0015759D01*
X0134863Y0015838D01*
X0134826Y0015918D01*
X0134794Y0016000D01*
X0134764Y0016084D01*
X0134739Y0016168D01*
X0134717Y0016254D01*
X0134700Y0016340D01*
X0134686Y0016428D01*
X0134676Y0016516D01*
X0134670Y0016604D01*
X0134668Y0016692D01*
X0192494Y0009300D02*
X0192496Y0009458D01*
X0192502Y0009616D01*
X0192512Y0009774D01*
X0192526Y0009932D01*
X0192544Y0010089D01*
X0192565Y0010246D01*
X0192591Y0010402D01*
X0192621Y0010558D01*
X0192654Y0010713D01*
X0192692Y0010866D01*
X0192733Y0011019D01*
X0192778Y0011171D01*
X0192827Y0011322D01*
X0192880Y0011471D01*
X0192936Y0011619D01*
X0192996Y0011765D01*
X0193060Y0011910D01*
X0193128Y0012053D01*
X0193199Y0012195D01*
X0193273Y0012335D01*
X0193351Y0012472D01*
X0193433Y0012608D01*
X0193517Y0012742D01*
X0193606Y0012873D01*
X0193697Y0013002D01*
X0193792Y0013129D01*
X0193889Y0013254D01*
X0193990Y0013376D01*
X0194094Y0013495D01*
X0194201Y0013612D01*
X0194311Y0013726D01*
X0194424Y0013837D01*
X0194539Y0013946D01*
X0194657Y0014051D01*
X0194778Y0014153D01*
X0194901Y0014253D01*
X0195027Y0014349D01*
X0195155Y0014442D01*
X0195285Y0014532D01*
X0195418Y0014618D01*
X0195553Y0014702D01*
X0195689Y0014781D01*
X0195828Y0014858D01*
X0195969Y0014930D01*
X0196111Y0015000D01*
X0196255Y0015065D01*
X0196401Y0015127D01*
X0196548Y0015185D01*
X0196697Y0015240D01*
X0196847Y0015291D01*
X0196998Y0015338D01*
X0197150Y0015381D01*
X0197303Y0015420D01*
X0197458Y0015456D01*
X0197613Y0015487D01*
X0197769Y0015515D01*
X0197925Y0015539D01*
X0198082Y0015559D01*
X0198240Y0015575D01*
X0198397Y0015587D01*
X0198556Y0015595D01*
X0198714Y0015599D01*
X0198872Y0015599D01*
X0199030Y0015595D01*
X0199189Y0015587D01*
X0199346Y0015575D01*
X0199504Y0015559D01*
X0199661Y0015539D01*
X0199817Y0015515D01*
X0199973Y0015487D01*
X0200128Y0015456D01*
X0200283Y0015420D01*
X0200436Y0015381D01*
X0200588Y0015338D01*
X0200739Y0015291D01*
X0200889Y0015240D01*
X0201038Y0015185D01*
X0201185Y0015127D01*
X0201331Y0015065D01*
X0201475Y0015000D01*
X0201617Y0014930D01*
X0201758Y0014858D01*
X0201897Y0014781D01*
X0202033Y0014702D01*
X0202168Y0014618D01*
X0202301Y0014532D01*
X0202431Y0014442D01*
X0202559Y0014349D01*
X0202685Y0014253D01*
X0202808Y0014153D01*
X0202929Y0014051D01*
X0203047Y0013946D01*
X0203162Y0013837D01*
X0203275Y0013726D01*
X0203385Y0013612D01*
X0203492Y0013495D01*
X0203596Y0013376D01*
X0203697Y0013254D01*
X0203794Y0013129D01*
X0203889Y0013002D01*
X0203980Y0012873D01*
X0204069Y0012742D01*
X0204153Y0012608D01*
X0204235Y0012472D01*
X0204313Y0012335D01*
X0204387Y0012195D01*
X0204458Y0012053D01*
X0204526Y0011910D01*
X0204590Y0011765D01*
X0204650Y0011619D01*
X0204706Y0011471D01*
X0204759Y0011322D01*
X0204808Y0011171D01*
X0204853Y0011019D01*
X0204894Y0010866D01*
X0204932Y0010713D01*
X0204965Y0010558D01*
X0204995Y0010402D01*
X0205021Y0010246D01*
X0205042Y0010089D01*
X0205060Y0009932D01*
X0205074Y0009774D01*
X0205084Y0009616D01*
X0205090Y0009458D01*
X0205092Y0009300D01*
X0205090Y0009142D01*
X0205084Y0008984D01*
X0205074Y0008826D01*
X0205060Y0008668D01*
X0205042Y0008511D01*
X0205021Y0008354D01*
X0204995Y0008198D01*
X0204965Y0008042D01*
X0204932Y0007887D01*
X0204894Y0007734D01*
X0204853Y0007581D01*
X0204808Y0007429D01*
X0204759Y0007278D01*
X0204706Y0007129D01*
X0204650Y0006981D01*
X0204590Y0006835D01*
X0204526Y0006690D01*
X0204458Y0006547D01*
X0204387Y0006405D01*
X0204313Y0006265D01*
X0204235Y0006128D01*
X0204153Y0005992D01*
X0204069Y0005858D01*
X0203980Y0005727D01*
X0203889Y0005598D01*
X0203794Y0005471D01*
X0203697Y0005346D01*
X0203596Y0005224D01*
X0203492Y0005105D01*
X0203385Y0004988D01*
X0203275Y0004874D01*
X0203162Y0004763D01*
X0203047Y0004654D01*
X0202929Y0004549D01*
X0202808Y0004447D01*
X0202685Y0004347D01*
X0202559Y0004251D01*
X0202431Y0004158D01*
X0202301Y0004068D01*
X0202168Y0003982D01*
X0202033Y0003898D01*
X0201897Y0003819D01*
X0201758Y0003742D01*
X0201617Y0003670D01*
X0201475Y0003600D01*
X0201331Y0003535D01*
X0201185Y0003473D01*
X0201038Y0003415D01*
X0200889Y0003360D01*
X0200739Y0003309D01*
X0200588Y0003262D01*
X0200436Y0003219D01*
X0200283Y0003180D01*
X0200128Y0003144D01*
X0199973Y0003113D01*
X0199817Y0003085D01*
X0199661Y0003061D01*
X0199504Y0003041D01*
X0199346Y0003025D01*
X0199189Y0003013D01*
X0199030Y0003005D01*
X0198872Y0003001D01*
X0198714Y0003001D01*
X0198556Y0003005D01*
X0198397Y0003013D01*
X0198240Y0003025D01*
X0198082Y0003041D01*
X0197925Y0003061D01*
X0197769Y0003085D01*
X0197613Y0003113D01*
X0197458Y0003144D01*
X0197303Y0003180D01*
X0197150Y0003219D01*
X0196998Y0003262D01*
X0196847Y0003309D01*
X0196697Y0003360D01*
X0196548Y0003415D01*
X0196401Y0003473D01*
X0196255Y0003535D01*
X0196111Y0003600D01*
X0195969Y0003670D01*
X0195828Y0003742D01*
X0195689Y0003819D01*
X0195553Y0003898D01*
X0195418Y0003982D01*
X0195285Y0004068D01*
X0195155Y0004158D01*
X0195027Y0004251D01*
X0194901Y0004347D01*
X0194778Y0004447D01*
X0194657Y0004549D01*
X0194539Y0004654D01*
X0194424Y0004763D01*
X0194311Y0004874D01*
X0194201Y0004988D01*
X0194094Y0005105D01*
X0193990Y0005224D01*
X0193889Y0005346D01*
X0193792Y0005471D01*
X0193697Y0005598D01*
X0193606Y0005727D01*
X0193517Y0005858D01*
X0193433Y0005992D01*
X0193351Y0006128D01*
X0193273Y0006265D01*
X0193199Y0006405D01*
X0193128Y0006547D01*
X0193060Y0006690D01*
X0192996Y0006835D01*
X0192936Y0006981D01*
X0192880Y0007129D01*
X0192827Y0007278D01*
X0192778Y0007429D01*
X0192733Y0007581D01*
X0192692Y0007734D01*
X0192654Y0007887D01*
X0192621Y0008042D01*
X0192591Y0008198D01*
X0192565Y0008354D01*
X0192544Y0008511D01*
X0192526Y0008668D01*
X0192512Y0008826D01*
X0192502Y0008984D01*
X0192496Y0009142D01*
X0192494Y0009300D01*
X0192494Y0190550D02*
X0192496Y0190708D01*
X0192502Y0190866D01*
X0192512Y0191024D01*
X0192526Y0191182D01*
X0192544Y0191339D01*
X0192565Y0191496D01*
X0192591Y0191652D01*
X0192621Y0191808D01*
X0192654Y0191963D01*
X0192692Y0192116D01*
X0192733Y0192269D01*
X0192778Y0192421D01*
X0192827Y0192572D01*
X0192880Y0192721D01*
X0192936Y0192869D01*
X0192996Y0193015D01*
X0193060Y0193160D01*
X0193128Y0193303D01*
X0193199Y0193445D01*
X0193273Y0193585D01*
X0193351Y0193722D01*
X0193433Y0193858D01*
X0193517Y0193992D01*
X0193606Y0194123D01*
X0193697Y0194252D01*
X0193792Y0194379D01*
X0193889Y0194504D01*
X0193990Y0194626D01*
X0194094Y0194745D01*
X0194201Y0194862D01*
X0194311Y0194976D01*
X0194424Y0195087D01*
X0194539Y0195196D01*
X0194657Y0195301D01*
X0194778Y0195403D01*
X0194901Y0195503D01*
X0195027Y0195599D01*
X0195155Y0195692D01*
X0195285Y0195782D01*
X0195418Y0195868D01*
X0195553Y0195952D01*
X0195689Y0196031D01*
X0195828Y0196108D01*
X0195969Y0196180D01*
X0196111Y0196250D01*
X0196255Y0196315D01*
X0196401Y0196377D01*
X0196548Y0196435D01*
X0196697Y0196490D01*
X0196847Y0196541D01*
X0196998Y0196588D01*
X0197150Y0196631D01*
X0197303Y0196670D01*
X0197458Y0196706D01*
X0197613Y0196737D01*
X0197769Y0196765D01*
X0197925Y0196789D01*
X0198082Y0196809D01*
X0198240Y0196825D01*
X0198397Y0196837D01*
X0198556Y0196845D01*
X0198714Y0196849D01*
X0198872Y0196849D01*
X0199030Y0196845D01*
X0199189Y0196837D01*
X0199346Y0196825D01*
X0199504Y0196809D01*
X0199661Y0196789D01*
X0199817Y0196765D01*
X0199973Y0196737D01*
X0200128Y0196706D01*
X0200283Y0196670D01*
X0200436Y0196631D01*
X0200588Y0196588D01*
X0200739Y0196541D01*
X0200889Y0196490D01*
X0201038Y0196435D01*
X0201185Y0196377D01*
X0201331Y0196315D01*
X0201475Y0196250D01*
X0201617Y0196180D01*
X0201758Y0196108D01*
X0201897Y0196031D01*
X0202033Y0195952D01*
X0202168Y0195868D01*
X0202301Y0195782D01*
X0202431Y0195692D01*
X0202559Y0195599D01*
X0202685Y0195503D01*
X0202808Y0195403D01*
X0202929Y0195301D01*
X0203047Y0195196D01*
X0203162Y0195087D01*
X0203275Y0194976D01*
X0203385Y0194862D01*
X0203492Y0194745D01*
X0203596Y0194626D01*
X0203697Y0194504D01*
X0203794Y0194379D01*
X0203889Y0194252D01*
X0203980Y0194123D01*
X0204069Y0193992D01*
X0204153Y0193858D01*
X0204235Y0193722D01*
X0204313Y0193585D01*
X0204387Y0193445D01*
X0204458Y0193303D01*
X0204526Y0193160D01*
X0204590Y0193015D01*
X0204650Y0192869D01*
X0204706Y0192721D01*
X0204759Y0192572D01*
X0204808Y0192421D01*
X0204853Y0192269D01*
X0204894Y0192116D01*
X0204932Y0191963D01*
X0204965Y0191808D01*
X0204995Y0191652D01*
X0205021Y0191496D01*
X0205042Y0191339D01*
X0205060Y0191182D01*
X0205074Y0191024D01*
X0205084Y0190866D01*
X0205090Y0190708D01*
X0205092Y0190550D01*
X0205090Y0190392D01*
X0205084Y0190234D01*
X0205074Y0190076D01*
X0205060Y0189918D01*
X0205042Y0189761D01*
X0205021Y0189604D01*
X0204995Y0189448D01*
X0204965Y0189292D01*
X0204932Y0189137D01*
X0204894Y0188984D01*
X0204853Y0188831D01*
X0204808Y0188679D01*
X0204759Y0188528D01*
X0204706Y0188379D01*
X0204650Y0188231D01*
X0204590Y0188085D01*
X0204526Y0187940D01*
X0204458Y0187797D01*
X0204387Y0187655D01*
X0204313Y0187515D01*
X0204235Y0187378D01*
X0204153Y0187242D01*
X0204069Y0187108D01*
X0203980Y0186977D01*
X0203889Y0186848D01*
X0203794Y0186721D01*
X0203697Y0186596D01*
X0203596Y0186474D01*
X0203492Y0186355D01*
X0203385Y0186238D01*
X0203275Y0186124D01*
X0203162Y0186013D01*
X0203047Y0185904D01*
X0202929Y0185799D01*
X0202808Y0185697D01*
X0202685Y0185597D01*
X0202559Y0185501D01*
X0202431Y0185408D01*
X0202301Y0185318D01*
X0202168Y0185232D01*
X0202033Y0185148D01*
X0201897Y0185069D01*
X0201758Y0184992D01*
X0201617Y0184920D01*
X0201475Y0184850D01*
X0201331Y0184785D01*
X0201185Y0184723D01*
X0201038Y0184665D01*
X0200889Y0184610D01*
X0200739Y0184559D01*
X0200588Y0184512D01*
X0200436Y0184469D01*
X0200283Y0184430D01*
X0200128Y0184394D01*
X0199973Y0184363D01*
X0199817Y0184335D01*
X0199661Y0184311D01*
X0199504Y0184291D01*
X0199346Y0184275D01*
X0199189Y0184263D01*
X0199030Y0184255D01*
X0198872Y0184251D01*
X0198714Y0184251D01*
X0198556Y0184255D01*
X0198397Y0184263D01*
X0198240Y0184275D01*
X0198082Y0184291D01*
X0197925Y0184311D01*
X0197769Y0184335D01*
X0197613Y0184363D01*
X0197458Y0184394D01*
X0197303Y0184430D01*
X0197150Y0184469D01*
X0196998Y0184512D01*
X0196847Y0184559D01*
X0196697Y0184610D01*
X0196548Y0184665D01*
X0196401Y0184723D01*
X0196255Y0184785D01*
X0196111Y0184850D01*
X0195969Y0184920D01*
X0195828Y0184992D01*
X0195689Y0185069D01*
X0195553Y0185148D01*
X0195418Y0185232D01*
X0195285Y0185318D01*
X0195155Y0185408D01*
X0195027Y0185501D01*
X0194901Y0185597D01*
X0194778Y0185697D01*
X0194657Y0185799D01*
X0194539Y0185904D01*
X0194424Y0186013D01*
X0194311Y0186124D01*
X0194201Y0186238D01*
X0194094Y0186355D01*
X0193990Y0186474D01*
X0193889Y0186596D01*
X0193792Y0186721D01*
X0193697Y0186848D01*
X0193606Y0186977D01*
X0193517Y0187108D01*
X0193433Y0187242D01*
X0193351Y0187378D01*
X0193273Y0187515D01*
X0193199Y0187655D01*
X0193128Y0187797D01*
X0193060Y0187940D01*
X0192996Y0188085D01*
X0192936Y0188231D01*
X0192880Y0188379D01*
X0192827Y0188528D01*
X0192778Y0188679D01*
X0192733Y0188831D01*
X0192692Y0188984D01*
X0192654Y0189137D01*
X0192621Y0189292D01*
X0192591Y0189448D01*
X0192565Y0189604D01*
X0192544Y0189761D01*
X0192526Y0189918D01*
X0192512Y0190076D01*
X0192502Y0190234D01*
X0192496Y0190392D01*
X0192494Y0190550D01*
X0011244Y0190550D02*
X0011246Y0190708D01*
X0011252Y0190866D01*
X0011262Y0191024D01*
X0011276Y0191182D01*
X0011294Y0191339D01*
X0011315Y0191496D01*
X0011341Y0191652D01*
X0011371Y0191808D01*
X0011404Y0191963D01*
X0011442Y0192116D01*
X0011483Y0192269D01*
X0011528Y0192421D01*
X0011577Y0192572D01*
X0011630Y0192721D01*
X0011686Y0192869D01*
X0011746Y0193015D01*
X0011810Y0193160D01*
X0011878Y0193303D01*
X0011949Y0193445D01*
X0012023Y0193585D01*
X0012101Y0193722D01*
X0012183Y0193858D01*
X0012267Y0193992D01*
X0012356Y0194123D01*
X0012447Y0194252D01*
X0012542Y0194379D01*
X0012639Y0194504D01*
X0012740Y0194626D01*
X0012844Y0194745D01*
X0012951Y0194862D01*
X0013061Y0194976D01*
X0013174Y0195087D01*
X0013289Y0195196D01*
X0013407Y0195301D01*
X0013528Y0195403D01*
X0013651Y0195503D01*
X0013777Y0195599D01*
X0013905Y0195692D01*
X0014035Y0195782D01*
X0014168Y0195868D01*
X0014303Y0195952D01*
X0014439Y0196031D01*
X0014578Y0196108D01*
X0014719Y0196180D01*
X0014861Y0196250D01*
X0015005Y0196315D01*
X0015151Y0196377D01*
X0015298Y0196435D01*
X0015447Y0196490D01*
X0015597Y0196541D01*
X0015748Y0196588D01*
X0015900Y0196631D01*
X0016053Y0196670D01*
X0016208Y0196706D01*
X0016363Y0196737D01*
X0016519Y0196765D01*
X0016675Y0196789D01*
X0016832Y0196809D01*
X0016990Y0196825D01*
X0017147Y0196837D01*
X0017306Y0196845D01*
X0017464Y0196849D01*
X0017622Y0196849D01*
X0017780Y0196845D01*
X0017939Y0196837D01*
X0018096Y0196825D01*
X0018254Y0196809D01*
X0018411Y0196789D01*
X0018567Y0196765D01*
X0018723Y0196737D01*
X0018878Y0196706D01*
X0019033Y0196670D01*
X0019186Y0196631D01*
X0019338Y0196588D01*
X0019489Y0196541D01*
X0019639Y0196490D01*
X0019788Y0196435D01*
X0019935Y0196377D01*
X0020081Y0196315D01*
X0020225Y0196250D01*
X0020367Y0196180D01*
X0020508Y0196108D01*
X0020647Y0196031D01*
X0020783Y0195952D01*
X0020918Y0195868D01*
X0021051Y0195782D01*
X0021181Y0195692D01*
X0021309Y0195599D01*
X0021435Y0195503D01*
X0021558Y0195403D01*
X0021679Y0195301D01*
X0021797Y0195196D01*
X0021912Y0195087D01*
X0022025Y0194976D01*
X0022135Y0194862D01*
X0022242Y0194745D01*
X0022346Y0194626D01*
X0022447Y0194504D01*
X0022544Y0194379D01*
X0022639Y0194252D01*
X0022730Y0194123D01*
X0022819Y0193992D01*
X0022903Y0193858D01*
X0022985Y0193722D01*
X0023063Y0193585D01*
X0023137Y0193445D01*
X0023208Y0193303D01*
X0023276Y0193160D01*
X0023340Y0193015D01*
X0023400Y0192869D01*
X0023456Y0192721D01*
X0023509Y0192572D01*
X0023558Y0192421D01*
X0023603Y0192269D01*
X0023644Y0192116D01*
X0023682Y0191963D01*
X0023715Y0191808D01*
X0023745Y0191652D01*
X0023771Y0191496D01*
X0023792Y0191339D01*
X0023810Y0191182D01*
X0023824Y0191024D01*
X0023834Y0190866D01*
X0023840Y0190708D01*
X0023842Y0190550D01*
X0023840Y0190392D01*
X0023834Y0190234D01*
X0023824Y0190076D01*
X0023810Y0189918D01*
X0023792Y0189761D01*
X0023771Y0189604D01*
X0023745Y0189448D01*
X0023715Y0189292D01*
X0023682Y0189137D01*
X0023644Y0188984D01*
X0023603Y0188831D01*
X0023558Y0188679D01*
X0023509Y0188528D01*
X0023456Y0188379D01*
X0023400Y0188231D01*
X0023340Y0188085D01*
X0023276Y0187940D01*
X0023208Y0187797D01*
X0023137Y0187655D01*
X0023063Y0187515D01*
X0022985Y0187378D01*
X0022903Y0187242D01*
X0022819Y0187108D01*
X0022730Y0186977D01*
X0022639Y0186848D01*
X0022544Y0186721D01*
X0022447Y0186596D01*
X0022346Y0186474D01*
X0022242Y0186355D01*
X0022135Y0186238D01*
X0022025Y0186124D01*
X0021912Y0186013D01*
X0021797Y0185904D01*
X0021679Y0185799D01*
X0021558Y0185697D01*
X0021435Y0185597D01*
X0021309Y0185501D01*
X0021181Y0185408D01*
X0021051Y0185318D01*
X0020918Y0185232D01*
X0020783Y0185148D01*
X0020647Y0185069D01*
X0020508Y0184992D01*
X0020367Y0184920D01*
X0020225Y0184850D01*
X0020081Y0184785D01*
X0019935Y0184723D01*
X0019788Y0184665D01*
X0019639Y0184610D01*
X0019489Y0184559D01*
X0019338Y0184512D01*
X0019186Y0184469D01*
X0019033Y0184430D01*
X0018878Y0184394D01*
X0018723Y0184363D01*
X0018567Y0184335D01*
X0018411Y0184311D01*
X0018254Y0184291D01*
X0018096Y0184275D01*
X0017939Y0184263D01*
X0017780Y0184255D01*
X0017622Y0184251D01*
X0017464Y0184251D01*
X0017306Y0184255D01*
X0017147Y0184263D01*
X0016990Y0184275D01*
X0016832Y0184291D01*
X0016675Y0184311D01*
X0016519Y0184335D01*
X0016363Y0184363D01*
X0016208Y0184394D01*
X0016053Y0184430D01*
X0015900Y0184469D01*
X0015748Y0184512D01*
X0015597Y0184559D01*
X0015447Y0184610D01*
X0015298Y0184665D01*
X0015151Y0184723D01*
X0015005Y0184785D01*
X0014861Y0184850D01*
X0014719Y0184920D01*
X0014578Y0184992D01*
X0014439Y0185069D01*
X0014303Y0185148D01*
X0014168Y0185232D01*
X0014035Y0185318D01*
X0013905Y0185408D01*
X0013777Y0185501D01*
X0013651Y0185597D01*
X0013528Y0185697D01*
X0013407Y0185799D01*
X0013289Y0185904D01*
X0013174Y0186013D01*
X0013061Y0186124D01*
X0012951Y0186238D01*
X0012844Y0186355D01*
X0012740Y0186474D01*
X0012639Y0186596D01*
X0012542Y0186721D01*
X0012447Y0186848D01*
X0012356Y0186977D01*
X0012267Y0187108D01*
X0012183Y0187242D01*
X0012101Y0187378D01*
X0012023Y0187515D01*
X0011949Y0187655D01*
X0011878Y0187797D01*
X0011810Y0187940D01*
X0011746Y0188085D01*
X0011686Y0188231D01*
X0011630Y0188379D01*
X0011577Y0188528D01*
X0011528Y0188679D01*
X0011483Y0188831D01*
X0011442Y0188984D01*
X0011404Y0189137D01*
X0011371Y0189292D01*
X0011341Y0189448D01*
X0011315Y0189604D01*
X0011294Y0189761D01*
X0011276Y0189918D01*
X0011262Y0190076D01*
X0011252Y0190234D01*
X0011246Y0190392D01*
X0011244Y0190550D01*
M02*
